<?xml version="1.0" encoding="UTF-8" standalone="no"?>
<!-- Created with Inkscape (http://www.inkscape.org/) -->

<svg
   width="874.84753"
   height="310.7381"
   viewBox="0 0 231.47007 82.216124"
   version="1.1"
   id="svg1"
   xml:space="preserve"
   xmlns="http://www.w3.org/2000/svg"
   xmlns:svg="http://www.w3.org/2000/svg"
   xmlns:rdf="http://www.w3.org/1999/02/22-rdf-syntax-ns#"
   xmlns:cc="http://creativecommons.org/ns#"
   xmlns:dc="http://purl.org/dc/elements/1.1/"><title
     id="title5">Pesa playground</title><defs
     id="defs1" /><g
     id="layer3"
     transform="translate(-17.060465,-19.771301)"><g
       id="g142"
       transform="matrix(0.99492211,0,0,0.98324934,1.4399903,1.3759319)"
       style="stroke-width:8.90535;stroke-dasharray:none"><path
         style="fill:#549c0e;fill-opacity:0.94902;stroke:#1a1a1a;stroke-width:8.90535;stroke-linejoin:round;stroke-dasharray:none"
         d="m 172.97003,94.78181 c -1.89479,-0.160497 -1.97556,-0.222157 -1.84256,-1.406351 0.0766,-0.681177 0.39053,-5.154054 0.69786,-9.939723 0.30732,-4.785671 0.69541,-10.093414 0.86243,-11.794986 l 0.30368,-3.093767 2.45035,-0.10053 c 4.11453,-0.168806 3.94275,-0.735323 3.23613,10.67131 -0.46074,7.437489 -0.0591,7.686679 0.34655,8.284908 0.47966,0.707238 0.99805,0.808289 4.14647,0.808289 2.29753,0 3.77063,-0.17474 4.07515,-0.483399 0.67392,-0.683113 1.32129,-13.709733 0.91629,-16.953184 -0.32549,-2.606581 -0.29879,-2.702005 0.82248,-2.938845 1.96445,-0.414942 5.17721,-0.281261 5.72349,0.238156 0.36775,0.349669 0.28514,2.068536 -0.28344,5.897493 -0.52669,3.546826 -0.76291,7.818811 -0.68737,12.430677 0.0662,4.050108 -0.079,7.121371 -0.34321,7.250208 -1.29101,0.629617 -16.43764,1.467434 -20.42436,1.129744 z"
         id="path130" /><path
         style="fill:#ff684d;fill-opacity:0.996078;stroke:#1a1a1a;stroke-width:8.90535;stroke-linejoin:round;stroke-dasharray:none"
         d="m 20.152874,97.677699 c 0,-0.100379 0.506732,-1.847507 1.126074,-3.882507 0.619339,-2.035005 1.242814,-4.41908 1.385496,-5.297945 0.385391,-2.373798 1.514941,-6.509238 2.431842,-8.90331 0.444898,-1.161646 0.808903,-2.915562 0.808903,-3.8976 0,-0.982035 0.265074,-3.623969 0.589054,-5.87096 0.323976,-2.246994 0.756796,-7.054599 0.961817,-10.683571 0.435532,-7.709098 0.76433,-10.591616 2.074098,-18.183175 0.530705,-3.076027 0.967611,-6.07868 0.970901,-6.672562 0.01423,-2.56936 1.718204,-3.958875 5.627786,-4.589222 0.809994,-0.130595 2.102205,-0.565622 2.871579,-0.966727 1.7832,-0.929651 6.42007,-2.337241 9.147046,-2.776731 1.160052,-0.18696 3.812959,-0.8871 5.895351,-1.55586 4.144729,-1.3311 4.842303,-1.44125 4.842303,-0.76464 0,0.24821 -0.33235,1.82118 -0.738555,3.49548 -0.406208,1.674306 -0.936223,5.201405 -1.177812,7.838 -0.241591,2.636597 -0.584956,5.872418 -0.763034,7.190714 -0.17808,1.3183 -0.33936,3.835048 -0.358401,5.592779 -0.01904,1.75773 -0.292457,4.977889 -0.60759,7.15591 -0.315133,2.178018 -0.572973,4.571762 -0.572973,5.319427 0,2.256596 -0.484865,2.713303 -3.913021,3.685775 -1.749823,0.496377 -4.475769,1.320147 -6.057655,1.830605 -2.893358,0.933657 -4.977591,1.46267 -6.245287,1.585156 -1.001963,0.09681 -1.478393,0.741649 -1.819382,2.462499 -0.166767,0.841604 -0.73192,3.327873 -1.255893,5.525038 -0.867291,3.63679 -2.157261,11.324075 -2.748464,16.378849 -0.12849,1.098582 -0.402753,2.896261 -0.609477,3.994844 l -0.375856,1.997421 -5.744425,0.08741 c -3.159434,0.04808 -5.744425,0.0052 -5.744425,-0.09509 z M 40.681299,56.150336 c 0.959294,-0.76279 2.469071,-1.613136 3.355064,-1.889656 0.885994,-0.276524 2.215275,-0.823751 2.953958,-1.216064 1.341369,-0.712394 1.342918,-0.716436 1.229025,-3.203767 -0.06272,-1.369759 0.06802,-3.703905 0.29053,-5.186988 0.222515,-1.483085 0.58094,-3.909953 0.796501,-5.393038 0.215562,-1.483083 0.486045,-3.01111 0.601074,-3.395614 0.151541,-0.506551 -0.0036,-0.699099 -0.563382,-0.699099 -0.737185,0 -1.921593,0.596406 -5.822301,2.93181 -0.962251,0.576114 -2.774231,1.289131 -4.02662,1.584487 l -2.277074,0.537007 -0.221331,3.36574 c -0.216467,3.291775 -0.05209,12.46251 0.241135,13.452716 0.263718,0.890577 1.659776,0.530746 3.443421,-0.887534 z"
         id="path131" /><path
         style="fill:#ff694d;fill-opacity:0.94902;stroke:#1a1a1a;stroke-width:8.90535;stroke-linejoin:round;stroke-dasharray:none"
         d="m 34.596731,97.615942 c 0,-0.290682 1.174829,-4.577873 1.723999,-6.291226 1.241503,-3.873357 2.915182,-10.834615 3.88991,-16.179109 0.581043,-3.185888 1.21615,-6.01723 1.411352,-6.291878 0.21387,-0.300907 1.250656,-0.499353 2.608888,-0.499353 1.892352,0 3.840889,0.112158 3.837858,0.699096 -0.0071,1.38015 -1.56399,8.701257 -3.091214,14.536359 -0.868176,3.317048 -1.449224,6.296566 -1.314285,6.739447 0.343608,1.127779 2.624168,1.328121 7.804868,1.105853 3.087263,-0.132451 4.672069,-0.05277 4.901167,0.246403 0.43154,0.563551 1.162451,5.01453 0.854379,5.202855 -0.885536,0.541329 -22.626922,1.240461 -22.626922,0.731553 z"
         id="path132" /><path
         id="path133"
         style="fill:#ff7d46;fill-opacity:0.996078;stroke:#1a1a1a;stroke-width:8.90535;stroke-linejoin:round;stroke-dasharray:none"
         d="m 68.239582,68.291847 c -1.213931,0.146853 -1.548521,1.566283 -1.984056,2.504376 -1.768978,4.43691 -3.239211,8.99139 -5.214731,13.34608 -1.726122,4.16793 -3.987651,8.09166 -5.680452,12.27167 -0.393525,0.59283 1.65309,1.32575 2.333926,1.34858 1.175551,0.30378 2.512399,-9.7e-4 3.246094,-1.02344 2.400554,-3.19733 3.205041,-7.2999 5.994792,-10.17213 0.89844,-0.77419 3.976874,-0.52785 5.108724,0.13111 2.91146,2.65798 4.023866,6.91777 6.999479,9.50885 0.448655,0.48476 3.940324,-0.19782 4.009896,-1.0108 -0.422674,-2.77326 -1.327716,-5.45122 -2.035369,-8.16182 -1.348784,-4.99014 -2.709557,-9.8996 -3.388459,-15.03544 -0.204542,-0.94642 -0.0023,-2.294731 -0.916016,-2.955082 -0.955578,-0.379324 -3.626431,-0.09946 -4.619448,-0.364329 -0.764122,-0.08048 -3.08087,-0.403923 -3.85438,-0.387625 z m 2.345313,7.941406 c 1.176797,1.68922 3.080345,3.51483 3.868879,5.4207 -0.912272,-0.29367 -1.713635,-0.86964 -2.31717,-1.34342 -0.532973,-0.41838 -0.691422,-0.94866 -1.180876,-0.89017 -1.076233,0.1286 -1.309769,1.818 -2.06224,2.51406 -0.328499,0.12666 -1.329012,0.24445 -0.970703,-0.37109 0.685675,-1.887 1.55407,-3.71184 2.566406,-5.44531 l 0.06389,0.0769 z" /><path
         style="fill:#ff943e;fill-opacity:0.94902;stroke:#1a1a1a;stroke-width:8.90535;stroke-linejoin:round;stroke-dasharray:none"
         d="m 81.578518,95.820965 c 0,-0.140555 3.282727,-3.323494 6.608251,-8.235393 0.759834,-1.122304 1.910418,-2.191722 1.992018,-3.544594 0.0752,-1.246146 0.462707,-1.4913 -1.429146,-3.461835 -2.923088,-3.044656 -7.257353,-10.249178 -6.516462,-10.831821 0.136688,-0.107489 1.464857,-0.292247 2.95149,-0.410569 l 2.702969,-0.215126 1.640372,2.144168 c 1.776241,2.275222 2.581625,3.12422 5.69084,6.670206 1.444851,1.647818 1.249611,-0.09784 4.074366,-5.160002 l 2.325664,-4.167692 3.48137,-0.24707 c 1.91473,-0.135888 3.57631,-0.180273 3.69239,-0.09863 0.11609,0.08165 -0.0431,0.550053 -0.35368,1.040917 -0.31061,0.490865 -2.04273,3.537209 -3.84914,6.769658 -1.80645,3.232447 -3.02519,4.643112 -4.656647,6.881167 -1.731991,2.37598 -3.574552,4.670854 -5.44198,6.941931 -1.840861,2.238768 -5.12773,6.203749 -5.67759,6.585788 -1.078419,0.74926 -7.235085,0.03439 -7.235085,-0.661099 z"
         id="path134" /><path
         id="path135"
         style="fill:#ffd429;fill-opacity:0.94902;stroke:#1a1a1a;stroke-width:8.90535;stroke-linejoin:round;stroke-dasharray:none"
         d="m 123.17126,66.916011 c -4.38625,0.266865 -8.79289,0.601371 -13.10352,1.470703 -1.45641,0.603338 -2.03254,2.218009 -2.83207,3.453132 -3.39022,6.077913 -5.8877,12.593973 -8.533491,19.015583 -0.551167,1.61933 -1.404871,3.27566 -1.198134,5.02869 0.32464,1.220969 1.762471,1.579656 2.864935,1.336639 3.12328,-0.27131 6.1923,-0.992759 9.32958,-1.141529 2.83426,-0.23707 5.77054,-0.009 8.62256,-0.43116 1.09748,-0.16615 2.03313,-1.01612 2.17461,-2.13682 0.6988,-2.52056 1.03761,-5.15646 1.0017,-7.76711 -0.29665,-1.35038 -1.89034,-1.48184 -3.0242,-1.50397 -1.55471,-0.14215 -3.5549,-0.0949 -4.40233,1.46695 -0.69502,1.35941 -0.49651,2.93113 -0.42699,4.39834 -2.11747,-0.20239 -4.28571,-0.21112 -6.3301,-0.86328 0.16387,-1.61865 0.8393,-3.13903 1.27965,-4.69689 1.11268,-3.49276 2.30502,-6.968312 3.72623,-10.346075 4.18557,-0.749275 8.50609,-0.502031 12.70446,-1.206762 1.42446,-0.594616 1.48002,-2.378568 1.42696,-3.698328 -0.0172,-1.119051 -0.7199,-2.489022 -2.0146,-2.378194 -0.42187,-0.015 -0.84335,-0.0105 -1.26525,8.1e-5 z" /><path
         style="fill:#d4c523;fill-opacity:0.94902;stroke:#1a1a1a;stroke-width:8.90535;stroke-linejoin:round;stroke-dasharray:none"
         d="m 124.02123,86.23655 c 0.0568,-4.449257 -0.0516,-10.201828 -0.24069,-12.783495 l -0.3439,-6.28144 4.80755,-0.0017 c 1.77103,-8.48e-4 5.37556,-0.150873 8.01365,-0.256067 l 6.3811,-0.254448 0.10065,7.583062 c 0.0591,4.455862 -0.0237,6.097733 -0.38348,6.393363 -0.26626,0.21879 -3.27962,0.534274 -4.75604,0.701068 -6.8448,0.773275 -4.41509,0.338886 -4.54681,1.059623 -0.08,0.438098 0.4836,0.735849 0.76493,1.073276 2.33652,2.802396 4.62016,4.367615 7.62596,7.852342 l 2.59105,3.003889 h -3.78196 -2.19445 l -3.56767,-3.59529 c -1.96221,-1.977448 -3.83426,-3.595358 -4.1601,-3.595358 -0.4872,0 -0.59244,0.595571 -0.59244,3.352876 0,3.735182 -0.0728,3.837832 -2.72311,3.837832 h -3.09741 z m 12.09468,-8.016537 c 1.40607,-0.242107 1.43809,-0.286453 1.43809,-1.993026 0,-1.285151 0.0361,-1.705885 -0.57525,-1.74541 -0.4422,-0.02859 -0.57523,0.399484 -0.57523,1.198453 0,1.169911 -0.0451,1.198452 -1.8948,1.198452 -1.86468,0 -2.59819,0.412362 -2.13181,1.198453 0.26906,0.453507 1.63299,0.5057 3.739,0.143078 z m -5.56432,-3.608425 v -1.78757 l 2.30093,-0.201314 c 1.26551,-0.110722 2.53167,-0.355722 2.8137,-0.544445 1.05464,-0.705734 -0.23627,-0.97276 -3.67655,-0.760488 l -3.54726,0.218873 v 1.76853 c 0,2.123768 0.58376,3.410972 1.46395,3.228068 0.48934,-0.101692 0.64523,-0.565959 0.64523,-1.921654 z"
         id="path136" /><path
         style="fill:#81ab14;fill-opacity:0.996078;stroke:#1a1a1a;stroke-width:8.90535;stroke-linejoin:round;stroke-dasharray:none;stroke-dashoffset:0"
         d="m 156.01486,93.495459 c -0.29536,-2.319489 -0.87344,-3.009342 -3.02348,-3.608131 -0.8869,-0.247004 -1.82827,-0.633301 -2.09192,-0.858439 -0.50466,-0.430946 -0.91466,-0.202565 -2.78832,1.553146 l -0.96677,0.905901 -1.36288,-1.9105 -1.36287,-1.9105 1.42813,-1.11905 1.42813,-1.119051 -0.70131,-1.63176 c -0.58794,-1.367989 -0.62718,-1.828672 -0.24274,-2.849925 0.25222,-0.66999 0.40291,-1.693735 0.33488,-2.274988 -0.1029,-0.879153 -0.40635,-1.130969 -1.80502,-1.497848 -0.92473,-0.242563 -1.77472,-0.598444 -1.88887,-0.790845 -0.11415,-0.192401 0.0698,-1.197867 0.40886,-2.234364 0.56396,-1.724121 0.7021,-1.864603 1.62287,-1.650278 3.58285,0.833962 4.40739,0.762012 5.94864,-0.519073 0.81995,-0.681538 1.70501,-1.239164 1.96679,-1.239164 0.69903,0 1.50975,-2.42996 1.68795,-5.059335 0.0195,-0.288018 0.98146,-0.516303 2.52501,-0.599227 l 2.49347,-0.133957 -8.1e-4,1.871544 c -9.9e-4,3.007162 0.4468,3.739097 2.86646,4.682169 2.74713,1.070707 2.86683,1.062752 5.1549,-0.34262 l 1.92012,-1.179369 1.3564,1.65076 c 1.58666,1.930977 1.66089,2.393074 0.49356,3.07286 -1.48594,0.865328 -2.67796,2.804071 -3.17033,5.15633 -0.26089,1.246381 -0.6088,2.603741 -0.77311,3.016359 -0.2194,0.550908 -0.0537,0.946536 0.62394,1.489185 0.50749,0.406432 1.20624,0.742965 1.55278,0.747848 0.34654,0.0049 0.74785,0.323477 0.89179,0.707981 0.19036,0.508471 -0.18095,1.110417 -1.36173,2.207545 l -1.62344,1.508446 -0.82702,-0.80935 c -1.03334,-1.011271 -1.62483,-1.013268 -3.07851,-0.01036 -0.63275,0.436539 -1.44422,0.79489 -1.80326,0.796337 -0.53169,0.0022 -0.67398,0.460772 -0.76698,2.47219 -0.12518,2.707787 -0.0841,2.669027 -3.42445,3.225244 l -1.39285,0.231917 z m 5.11347,-11.405081 c 0.80859,-0.708752 1.17989,-1.392012 1.17989,-2.171157 0,-1.803662 -0.65741,-3.186366 -1.51497,-3.186366 -0.65087,0 -0.71407,0.144956 -0.41747,0.957634 0.19224,0.526697 0.2455,1.066001 0.11835,1.198453 -0.12715,0.132448 -0.0356,0.240817 0.20329,0.240817 0.57116,0 -0.92862,2.652943 -1.66652,2.947918 -0.30666,0.122584 -0.55755,0.408291 -0.55755,0.6349 0,0.763436 1.46619,0.419833 2.65498,-0.622199 z m -4.95591,0.05909 c 0,-0.316606 -0.17257,-0.686752 -0.38349,-0.822544 -1.14544,-0.737452 0.19887,-4.834408 1.89691,-5.781078 1.02763,-0.572911 1.00718,-1.209897 -0.0389,-1.209897 -1.15684,0 -3.68547,2.888917 -3.98514,4.552958 -0.20329,1.128872 -0.064,1.574721 0.81249,2.599396 1.1514,1.346155 1.69808,1.559011 1.69808,0.661165 z"
         id="path137" /><path
         style="fill:#549c0e;fill-opacity:0.94902;stroke:#1a1a1a;stroke-width:8.90535;stroke-linejoin:miter;stroke-dasharray:none"
         d="m 212.01157,96.413605 c -0.80741,-0.41506 -2.52782,-2.08185 -3.82307,-3.70399 -2.17843,-1.870575 -3.19747,-3.703623 -4.97751,-5.409003 -0.84939,-0.81376 -1.51445,-2.568736 -2.71123,-2.291996 -0.56166,0.129879 -0.42817,0.982875 -0.55031,1.497159 -0.27623,1.16322 -0.0448,1.445665 -0.40279,3.551042 -0.6968,4.097188 -1.96273,5.499228 -4.32517,4.790258 -1.01852,-0.30566 -1.14404,-1.01997 -1.48395,-8.445217 -0.51008,-11.143038 -0.45106,-20.92124 0.13149,-21.79052 0.49507,-0.73873 6.70141,9.886296 10.71293,14.385272 1.09367,1.226567 1.90758,3.697064 3.61708,3.410313 0.75866,-0.127264 0.90329,-1.260272 0.90329,-1.934244 0,-0.673969 0.75994,-3.424259 1.68874,-6.111761 0.92883,-2.687494 2.09669,-6.374936 2.59529,-8.194315 1.23868,-4.519845 3.67804,-3.769658 5.44424,-3.783281 1.76621,-0.01363 2.53732,0.05384 2.6667,0.176166 0.12927,0.122329 -0.64224,2.543689 -1.71467,5.380815 -2.12596,5.624259 -2.84486,9.166347 -3.76627,18.556421 -1.14326,11.650941 -1.05528,11.433061 -4.00482,9.916881 z"
         id="path138" /><path
         style="fill:#017a01;fill-opacity:1;stroke:#1a1a1a;stroke-width:8.90535;stroke-linejoin:round;stroke-dasharray:none"
         d="m 214.97287,94.74106 c 0.93782,-3.38172 2.2008,-12.444212 2.19806,-15.7722 -0.002,-1.880782 0.67565,-7.15408 1.06546,-8.296712 0.11244,-0.329573 0.17422,-0.803133 0.13732,-1.052352 -0.0369,-0.249219 1.10072,-0.755807 2.52806,-1.125745 1.42733,-0.369942 3.54428,-0.938133 4.70434,-1.262648 1.16006,-0.324514 2.88053,-0.720817 3.82328,-0.880668 1.64389,-0.278738 1.73994,-0.372091 2.34476,-2.279069 1.2296,-3.876788 1.53574,-5.248466 2.45356,-10.993102 0.51044,-3.19484 1.04127,-6.116069 1.17962,-6.491618 0.21616,-0.586836 0.84447,-0.682816 4.46988,-0.682816 3.21064,0 4.17733,0.119289 4.04659,0.499355 -0.53625,1.558937 -1.54194,4.959675 -2.45135,8.289296 -0.5701,2.087306 -1.25005,3.981774 -1.511,4.209931 -0.26095,0.228157 -0.39078,0.870786 -0.28851,1.428059 0.10228,0.557275 -0.007,2.078396 -0.24211,3.380269 -0.23542,1.301871 -0.59229,4.710468 -0.79306,7.574653 -0.20076,2.864188 -0.63367,6.729199 -0.96203,8.588913 -0.32837,1.85971 -0.8241,4.770177 -1.10165,6.467702 -0.27754,1.697524 -0.71169,3.346322 -0.96477,3.664 -0.25309,0.317677 -1.18366,0.701415 -2.06792,0.852755 -0.88426,0.151341 -2.81573,0.690871 -4.29215,1.198964 -1.47644,0.508093 -3.54726,1.105092 -4.60186,1.326672 -1.05459,0.22158 -3.48858,0.774707 -5.40888,1.229164 -4.25584,1.007204 -4.51179,1.014834 -4.26564,0.127197 z m 10.54062,-8.489029 c 1.70332,-0.878865 3.49953,-1.60069 3.99158,-1.604054 0.49206,-0.0033 1.092,-0.138191 1.33322,-0.299613 0.46311,-0.309912 0.73941,-4.434204 0.60175,-8.982277 -0.0729,-2.411686 -0.1635,-2.696518 -0.85682,-2.696518 -0.42635,0 -1.41863,0.429389 -2.20504,0.954197 -0.78643,0.524807 -2.40334,1.262329 -3.59315,1.638934 l -2.16327,0.684741 0.18907,1.468527 c 0.15757,1.223745 -0.43067,5.727557 -1.24537,9.535162 -0.27137,1.268233 0.34758,1.158634 3.94803,-0.699099 z"
         id="path139" /><path
         style="fill:#ff7d46;fill-opacity:0.996078;stroke:#1a1a1a;stroke-width:8.90535;stroke-linejoin:round;stroke-dasharray:none"
         d="m 51.006396,66.547446 c 0,-0.233281 0.355994,-3.434981 0.791096,-6.46813 0.435103,-3.033151 1.026282,-7.672035 1.31373,-10.308631 0.598904,-5.493421 1.39482,-11.962345 1.480299,-12.031349 0.0319,-0.02576 3.905197,-0.143883 8.607317,-0.262504 l 8.549309,-0.215678 -0.112581,2.659409 -0.112583,2.659408 -1.53395,-0.02684 c -0.843672,-0.01474 -3.028807,-0.173021 -4.855855,-0.351707 -3.739752,-0.365757 -5.098417,-0.149435 -5.492105,0.874435 -0.410564,1.067753 -1.298346,7.052845 -1.096755,7.393906 0.09741,0.164786 2.324029,0.299613 4.948058,0.299613 h 4.770963 v 2.012103 2.012101 l -4.951964,-0.272331 -4.951965,-0.272332 -0.414726,1.555974 c -0.453997,1.728039 -0.416974,3.517465 -0.419061,5.287479 l 2.51759,0.28086 c 1.384674,0.154469 3.886364,0.156478 5.559306,0.0045 4.029474,-0.366159 4.579763,-0.16123 4.572323,1.702749 -0.0032,0.809129 -0.132658,2.727142 -0.287616,2.968728 -0.180838,0.281936 -3.234677,0.535561 -8.526729,0.708159 -4.534739,0.147896 -8.719549,-0.153499 -9.299575,-0.02301 -0.631284,0.142025 -1.054588,0.06701 -1.054588,-0.186888 z"
         id="path140" /><path
         style="fill:#ff7d46;fill-opacity:0.996078;stroke:#1a1a1a;stroke-width:8.90535;stroke-linejoin:round;stroke-dasharray:none"
         d="m 73.183693,65.460943 c -1.160047,-0.413177 -2.349977,-0.845405 -2.644279,-0.960507 -0.367135,-0.143586 0.306108,-1.115333 2.144825,-3.095792 1.47396,-1.587585 2.902434,-3.323627 3.174389,-3.857872 0.45777,-0.899274 0.383427,-1.07714 -1.001834,-2.396905 -0.822964,-0.784051 -2.576224,-2.45429 -3.896134,-3.711639 l -2.399833,-2.286086 1.544457,-1.608884 c 0.849454,-0.884885 1.673887,-1.609983 1.832076,-1.611328 0.158187,-0.0014 2.242779,-1.888908 4.632427,-4.194583 2.38963,-2.305678 4.56791,-4.192139 4.84061,-4.192139 0.2727,0 1.21859,0.816832 2.102,1.815183 l 1.60617,1.815184 -2.02156,2.479269 c -1.11184,1.3636 -2.68059,3.194246 -3.4861,4.068106 -0.80551,0.873857 -1.41555,1.853906 -1.35566,2.177889 0.0599,0.32398 1.4497,1.51756 3.08845,2.652397 1.63876,1.134841 3.3159,2.380434 3.727,2.767985 0.73517,0.693068 0.72683,0.721828 -0.50798,1.751033 -0.6905,0.575513 -2.49556,2.515545 -4.01126,4.311179 -2.39503,2.837397 -4.700433,5.030647 -5.126036,4.876688 -0.07291,-0.02638 -1.081677,-0.386001 -2.241728,-0.799178 z"
         id="path141" /><path
         id="path142"
         style="fill:#ff7d46;fill-opacity:0.996078;stroke:#1a1a1a;stroke-width:8.90535;stroke-linejoin:round;stroke-dasharray:none"
         d="m 94.81218,38.116451 c -1.213921,0.146853 -1.548511,1.566283 -1.984048,2.504376 -1.768971,4.43691 -3.239202,8.99139 -5.214721,13.34608 -1.726122,4.16793 -3.987651,8.09166 -5.680452,12.27167 -0.393525,0.59283 1.65309,1.32575 2.333926,1.34858 1.175551,0.30378 2.512399,-9.7e-4 3.246094,-1.02344 2.400551,-3.19733 3.205045,-7.2999 5.99478,-10.17213 0.898434,-0.77419 3.976846,-0.52785 5.10869,0.13111 2.911451,2.65798 4.023861,6.91777 6.999471,9.50885 0.44866,0.48476 3.94033,-0.19782 4.0099,-1.0108 -0.42268,-2.77326 -1.32772,-5.45122 -2.03537,-8.16182 -1.34878,-4.99014 -2.70956,-9.8996 -3.38846,-15.03544 -0.20454,-0.94642 -0.002,-2.294731 -0.91602,-2.955082 -0.95557,-0.379324 -3.626427,-0.09946 -4.619431,-0.364329 -0.764127,-0.08048 -3.080852,-0.403923 -3.854359,-0.387625 z m 2.345298,7.941406 c 1.176794,1.68922 3.080322,3.51483 3.868862,5.4207 -0.91227,-0.29367 -1.713634,-0.86964 -2.317161,-1.34342 -0.532967,-0.41838 -0.691417,-0.94866 -1.180874,-0.89017 -1.076224,0.1286 -1.309761,1.818 -2.062228,2.51406 -0.328497,0.12666 -1.329001,0.24445 -0.970694,-0.37109 0.685667,-1.887 1.554061,-3.71184 2.566395,-5.44531 l 0.0639,0.0769 z" /></g><g
       id="g130"><path
         style="fill:#549c0e;fill-opacity:0.94902;stroke:#1a1a1a;stroke-width:1.04571;stroke-linejoin:round;stroke-dasharray:none"
         d="m 172.97003,94.78181 c -1.89479,-0.160497 -1.97556,-0.222157 -1.84256,-1.406351 0.0766,-0.681177 0.39053,-5.154054 0.69786,-9.939723 0.30732,-4.785671 0.69541,-10.093414 0.86243,-11.794986 l 0.30368,-3.093767 2.45035,-0.10053 c 4.11453,-0.168806 3.94275,-0.735323 3.23613,10.67131 -0.46074,7.437489 -0.0591,7.686679 0.34655,8.284908 0.47966,0.707238 0.99805,0.808289 4.14647,0.808289 2.29753,0 3.77063,-0.17474 4.07515,-0.483399 0.67392,-0.683113 1.32129,-13.709733 0.91629,-16.953184 -0.32549,-2.606581 -0.29879,-2.702005 0.82248,-2.938845 1.96445,-0.414942 5.17721,-0.281261 5.72349,0.238156 0.36775,0.349669 0.28514,2.068536 -0.28344,5.897493 -0.52669,3.546826 -0.76291,7.818811 -0.68737,12.430677 0.0662,4.050108 -0.079,7.121371 -0.34321,7.250208 -1.29101,0.629617 -16.43764,1.467434 -20.42436,1.129744 z"
         id="path84-9" /><path
         style="fill:#ff684d;fill-opacity:0.996078;stroke:#1a1a1a;stroke-width:1.25776;stroke-linejoin:round;stroke-dasharray:none"
         d="m 20.152874,97.677699 c 0,-0.100379 0.506732,-1.847507 1.126074,-3.882507 0.619339,-2.035005 1.242814,-4.41908 1.385496,-5.297945 0.385391,-2.373798 1.514941,-6.509238 2.431842,-8.90331 0.444898,-1.161646 0.808903,-2.915562 0.808903,-3.8976 0,-0.982035 0.265074,-3.623969 0.589054,-5.87096 0.323976,-2.246994 0.756796,-7.054599 0.961817,-10.683571 0.435532,-7.709098 0.76433,-10.591616 2.074098,-18.183175 0.530705,-3.076027 0.967611,-6.07868 0.970901,-6.672562 0.01423,-2.56936 1.718204,-3.958875 5.627786,-4.589222 0.809994,-0.130595 2.102205,-0.565622 2.871579,-0.966727 1.7832,-0.929651 6.42007,-2.337241 9.147046,-2.776731 1.160052,-0.18696 3.812959,-0.8871 5.895351,-1.55586 4.144729,-1.3311 4.842303,-1.44125 4.842303,-0.76464 0,0.24821 -0.33235,1.82118 -0.738555,3.49548 -0.406208,1.674306 -0.936223,5.201405 -1.177812,7.838 -0.241591,2.636597 -0.584956,5.872418 -0.763034,7.190714 -0.17808,1.3183 -0.33936,3.835048 -0.358401,5.592779 -0.01904,1.75773 -0.292457,4.977889 -0.60759,7.15591 -0.315133,2.178018 -0.572973,4.571762 -0.572973,5.319427 0,2.256596 -0.484865,2.713303 -3.913021,3.685775 -1.749823,0.496377 -4.475769,1.320147 -6.057655,1.830605 -2.893358,0.933657 -4.977591,1.46267 -6.245287,1.585156 -1.001963,0.09681 -1.478393,0.741649 -1.819382,2.462499 -0.166767,0.841604 -0.73192,3.327873 -1.255893,5.525038 -0.867291,3.63679 -2.157261,11.324075 -2.748464,16.378849 -0.12849,1.098582 -0.402753,2.896261 -0.609477,3.994844 l -0.375856,1.997421 -5.744425,0.08741 c -3.159434,0.04808 -5.744425,0.0052 -5.744425,-0.09509 z M 40.681299,56.150336 c 0.959294,-0.76279 2.469071,-1.613136 3.355064,-1.889656 0.885994,-0.276524 2.215275,-0.823751 2.953958,-1.216064 1.341369,-0.712394 1.342918,-0.716436 1.229025,-3.203767 -0.06272,-1.369759 0.06802,-3.703905 0.29053,-5.186988 0.222515,-1.483085 0.58094,-3.909953 0.796501,-5.393038 0.215562,-1.483083 0.486045,-3.01111 0.601074,-3.395614 0.151541,-0.506551 -0.0036,-0.699099 -0.563382,-0.699099 -0.737185,0 -1.921593,0.596406 -5.822301,2.93181 -0.962251,0.576114 -2.774231,1.289131 -4.02662,1.584487 l -2.277074,0.537007 -0.221331,3.36574 c -0.216467,3.291775 -0.05209,12.46251 0.241135,13.452716 0.263718,0.890577 1.659776,0.530746 3.443421,-0.887534 z"
         id="path92" /><path
         style="fill:#ff694d;fill-opacity:0.94902;stroke:#1a1a1a;stroke-width:1.25776;stroke-linejoin:round;stroke-dasharray:none"
         d="m 34.596731,97.615942 c 0,-0.290682 1.174829,-4.577873 1.723999,-6.291226 1.241503,-3.873357 2.915182,-10.834615 3.88991,-16.179109 0.581043,-3.185888 1.21615,-6.01723 1.411352,-6.291878 0.21387,-0.300907 1.250656,-0.499353 2.608888,-0.499353 1.892352,0 3.840889,0.112158 3.837858,0.699096 -0.0071,1.38015 -1.56399,8.701257 -3.091214,14.536359 -0.868176,3.317048 -1.449224,6.296566 -1.314285,6.739447 0.343608,1.127779 2.624168,1.328121 7.804868,1.105853 3.087263,-0.132451 4.672069,-0.05277 4.901167,0.246403 0.43154,0.563551 1.162451,5.01453 0.854379,5.202855 -0.885536,0.541329 -22.626922,1.240461 -22.626922,0.731553 z"
         id="path93" /><path
         id="path94"
         style="fill:#ff7d46;fill-opacity:0.996078;stroke:#1a1a1a;stroke-width:1.13102;stroke-linejoin:round;stroke-dasharray:none"
         d="m 68.239582,68.291847 c -1.213931,0.146853 -1.548521,1.566283 -1.984056,2.504376 -1.768978,4.43691 -3.239211,8.99139 -5.214731,13.34608 -1.726122,4.16793 -3.987651,8.09166 -5.680452,12.27167 -0.393525,0.59283 1.65309,1.32575 2.333926,1.34858 1.175551,0.30378 2.512399,-9.7e-4 3.246094,-1.02344 2.400554,-3.19733 3.205041,-7.2999 5.994792,-10.17213 0.89844,-0.77419 3.976874,-0.52785 5.108724,0.13111 2.91146,2.65798 4.023866,6.91777 6.999479,9.50885 0.448655,0.48476 3.940324,-0.19782 4.009896,-1.0108 -0.422674,-2.77326 -1.327716,-5.45122 -2.035369,-8.16182 -1.348784,-4.99014 -2.709557,-9.8996 -3.388459,-15.03544 -0.204542,-0.94642 -0.0023,-2.294731 -0.916016,-2.955082 -0.955578,-0.379324 -3.626431,-0.09946 -4.619448,-0.364329 -0.764122,-0.08048 -3.08087,-0.403923 -3.85438,-0.387625 z m 2.345313,7.941406 c 1.176797,1.68922 3.080345,3.51483 3.868879,5.4207 -0.912272,-0.29367 -1.713635,-0.86964 -2.31717,-1.34342 -0.532973,-0.41838 -0.691422,-0.94866 -1.180876,-0.89017 -1.076233,0.1286 -1.309769,1.818 -2.06224,2.51406 -0.328499,0.12666 -1.329012,0.24445 -0.970703,-0.37109 0.685675,-1.887 1.55407,-3.71184 2.566406,-5.44531 l 0.06389,0.0769 z" /><path
         style="fill:#ff943e;fill-opacity:0.94902;stroke:#1a1a1a;stroke-width:1.002;stroke-linejoin:round;stroke-dasharray:none"
         d="m 81.578518,95.820965 c 0,-0.140555 3.282727,-3.323494 6.608251,-8.235393 0.759834,-1.122304 1.910418,-2.191722 1.992018,-3.544594 0.0752,-1.246146 0.462707,-1.4913 -1.429146,-3.461835 -2.923088,-3.044656 -7.257353,-10.249178 -6.516462,-10.831821 0.136688,-0.107489 1.464857,-0.292247 2.95149,-0.410569 l 2.702969,-0.215126 1.640372,2.144168 c 1.776241,2.275222 2.581625,3.12422 5.69084,6.670206 1.444851,1.647818 1.249611,-0.09784 4.074366,-5.160002 l 2.325664,-4.167692 3.48137,-0.24707 c 1.91473,-0.135888 3.57631,-0.180273 3.69239,-0.09863 0.11609,0.08165 -0.0431,0.550053 -0.35368,1.040917 -0.31061,0.490865 -2.04273,3.537209 -3.84914,6.769658 -1.80645,3.232447 -3.02519,4.643112 -4.656647,6.881167 -1.731991,2.37598 -3.574552,4.670854 -5.44198,6.941931 -1.840861,2.238768 -5.12773,6.203749 -5.67759,6.585788 -1.078419,0.74926 -7.235085,0.03439 -7.235085,-0.661099 z"
         id="path95" /><path
         id="path96"
         style="fill:#ffd429;fill-opacity:0.94902;stroke:#1a1a1a;stroke-width:1.23809;stroke-linejoin:round;stroke-dasharray:none"
         d="m 123.17126,66.916011 c -4.38625,0.266865 -8.79289,0.601371 -13.10352,1.470703 -1.45641,0.603338 -2.03254,2.218009 -2.83207,3.453132 -3.39022,6.077913 -5.8877,12.593973 -8.533491,19.015583 -0.551167,1.61933 -1.404871,3.27566 -1.198134,5.02869 0.32464,1.220969 1.762471,1.579656 2.864935,1.336639 3.12328,-0.27131 6.1923,-0.992759 9.32958,-1.141529 2.83426,-0.23707 5.77054,-0.009 8.62256,-0.43116 1.09748,-0.16615 2.03313,-1.01612 2.17461,-2.13682 0.6988,-2.52056 1.03761,-5.15646 1.0017,-7.76711 -0.29665,-1.35038 -1.89034,-1.48184 -3.0242,-1.50397 -1.55471,-0.14215 -3.5549,-0.0949 -4.40233,1.46695 -0.69502,1.35941 -0.49651,2.93113 -0.42699,4.39834 -2.11747,-0.20239 -4.28571,-0.21112 -6.3301,-0.86328 0.16387,-1.61865 0.8393,-3.13903 1.27965,-4.69689 1.11268,-3.49276 2.30502,-6.968312 3.72623,-10.346075 4.18557,-0.749275 8.50609,-0.502031 12.70446,-1.206762 1.42446,-0.594616 1.48002,-2.378568 1.42696,-3.698328 -0.0172,-1.119051 -0.7199,-2.489022 -2.0146,-2.378194 -0.42187,-0.015 -0.84335,-0.0105 -1.26525,8.1e-5 z" /><path
         style="fill:#d4c523;fill-opacity:0.94902;stroke:#1a1a1a;stroke-width:0.943319;stroke-linejoin:round;stroke-dasharray:none"
         d="m 124.02123,86.23655 c 0.0568,-4.449257 -0.0516,-10.201828 -0.24069,-12.783495 l -0.3439,-6.28144 4.80755,-0.0017 c 1.77103,-8.48e-4 5.37556,-0.150873 8.01365,-0.256067 l 6.3811,-0.254448 0.10065,7.583062 c 0.0591,4.455862 -0.0237,6.097733 -0.38348,6.393363 -0.26626,0.21879 -3.27962,0.534274 -4.75604,0.701068 -6.8448,0.773275 -4.41509,0.338886 -4.54681,1.059623 -0.08,0.438098 0.4836,0.735849 0.76493,1.073276 2.33652,2.802396 4.62016,4.367615 7.62596,7.852342 l 2.59105,3.003889 h -3.78196 -2.19445 l -3.56767,-3.59529 c -1.96221,-1.977448 -3.83426,-3.595358 -4.1601,-3.595358 -0.4872,0 -0.59244,0.595571 -0.59244,3.352876 0,3.735182 -0.0728,3.837832 -2.72311,3.837832 h -3.09741 z m 12.09468,-8.016537 c 1.40607,-0.242107 1.43809,-0.286453 1.43809,-1.993026 0,-1.285151 0.0361,-1.705885 -0.57525,-1.74541 -0.4422,-0.02859 -0.57523,0.399484 -0.57523,1.198453 0,1.169911 -0.0451,1.198452 -1.8948,1.198452 -1.86468,0 -2.59819,0.412362 -2.13181,1.198453 0.26906,0.453507 1.63299,0.5057 3.739,0.143078 z m -5.56432,-3.608425 v -1.78757 l 2.30093,-0.201314 c 1.26551,-0.110722 2.53167,-0.355722 2.8137,-0.544445 1.05464,-0.705734 -0.23627,-0.97276 -3.67655,-0.760488 l -3.54726,0.218873 v 1.76853 c 0,2.123768 0.58376,3.410972 1.46395,3.228068 0.48934,-0.101692 0.64523,-0.565959 0.64523,-1.921654 z"
         id="path97" /><path
         style="fill:#81ab14;fill-opacity:0.996078;stroke:#1a1a1a;stroke-width:0.940175;stroke-linejoin:round;stroke-dasharray:none;stroke-dashoffset:0"
         d="m 156.01486,93.495459 c -0.29536,-2.319489 -0.87344,-3.009342 -3.02348,-3.608131 -0.8869,-0.247004 -1.82827,-0.633301 -2.09192,-0.858439 -0.50466,-0.430946 -0.91466,-0.202565 -2.78832,1.553146 l -0.96677,0.905901 -1.36288,-1.9105 -1.36287,-1.9105 1.42813,-1.11905 1.42813,-1.119051 -0.70131,-1.63176 c -0.58794,-1.367989 -0.62718,-1.828672 -0.24274,-2.849925 0.25222,-0.66999 0.40291,-1.693735 0.33488,-2.274988 -0.1029,-0.879153 -0.40635,-1.130969 -1.80502,-1.497848 -0.92473,-0.242563 -1.77472,-0.598444 -1.88887,-0.790845 -0.11415,-0.192401 0.0698,-1.197867 0.40886,-2.234364 0.56396,-1.724121 0.7021,-1.864603 1.62287,-1.650278 3.58285,0.833962 4.40739,0.762012 5.94864,-0.519073 0.81995,-0.681538 1.70501,-1.239164 1.96679,-1.239164 0.69903,0 1.50975,-2.42996 1.68795,-5.059335 0.0195,-0.288018 0.98146,-0.516303 2.52501,-0.599227 l 2.49347,-0.133957 -8.1e-4,1.871544 c -9.9e-4,3.007162 0.4468,3.739097 2.86646,4.682169 2.74713,1.070707 2.86683,1.062752 5.1549,-0.34262 l 1.92012,-1.179369 1.3564,1.65076 c 1.58666,1.930977 1.66089,2.393074 0.49356,3.07286 -1.48594,0.865328 -2.67796,2.804071 -3.17033,5.15633 -0.26089,1.246381 -0.6088,2.603741 -0.77311,3.016359 -0.2194,0.550908 -0.0537,0.946536 0.62394,1.489185 0.50749,0.406432 1.20624,0.742965 1.55278,0.747848 0.34654,0.0049 0.74785,0.323477 0.89179,0.707981 0.19036,0.508471 -0.18095,1.110417 -1.36173,2.207545 l -1.62344,1.508446 -0.82702,-0.80935 c -1.03334,-1.011271 -1.62483,-1.013268 -3.07851,-0.01036 -0.63275,0.436539 -1.44422,0.79489 -1.80326,0.796337 -0.53169,0.0022 -0.67398,0.460772 -0.76698,2.47219 -0.12518,2.707787 -0.0841,2.669027 -3.42445,3.225244 l -1.39285,0.231917 z m 5.11347,-11.405081 c 0.80859,-0.708752 1.17989,-1.392012 1.17989,-2.171157 0,-1.803662 -0.65741,-3.186366 -1.51497,-3.186366 -0.65087,0 -0.71407,0.144956 -0.41747,0.957634 0.19224,0.526697 0.2455,1.066001 0.11835,1.198453 -0.12715,0.132448 -0.0356,0.240817 0.20329,0.240817 0.57116,0 -0.92862,2.652943 -1.66652,2.947918 -0.30666,0.122584 -0.55755,0.408291 -0.55755,0.6349 0,0.763436 1.46619,0.419833 2.65498,-0.622199 z m -4.95591,0.05909 c 0,-0.316606 -0.17257,-0.686752 -0.38349,-0.822544 -1.14544,-0.737452 0.19887,-4.834408 1.89691,-5.781078 1.02763,-0.572911 1.00718,-1.209897 -0.0389,-1.209897 -1.15684,0 -3.68547,2.888917 -3.98514,4.552958 -0.20329,1.128872 -0.064,1.574721 0.81249,2.599396 1.1514,1.346155 1.69808,1.559011 1.69808,0.661165 z"
         id="path98" /><path
         style="fill:#549c0e;fill-opacity:0.94902;stroke:#1a1a1a;stroke-width:1.32337;stroke-linejoin:miter;stroke-dasharray:none"
         d="m 212.01157,96.413605 c -0.80741,-0.41506 -2.52782,-2.08185 -3.82307,-3.70399 -2.17843,-1.870575 -3.19747,-3.703623 -4.97751,-5.409003 -0.84939,-0.81376 -1.51445,-2.568736 -2.71123,-2.291996 -0.56166,0.129879 -0.42817,0.982875 -0.55031,1.497159 -0.27623,1.16322 -0.0448,1.445665 -0.40279,3.551042 -0.6968,4.097188 -1.96273,5.499228 -4.32517,4.790258 -1.01852,-0.30566 -1.14404,-1.01997 -1.48395,-8.445217 -0.51008,-11.143038 -0.45106,-20.92124 0.13149,-21.79052 0.49507,-0.73873 6.70141,9.886296 10.71293,14.385272 1.09367,1.226567 1.90758,3.697064 3.61708,3.410313 0.75866,-0.127264 0.90329,-1.260272 0.90329,-1.934244 0,-0.673969 0.75994,-3.424259 1.68874,-6.111761 0.92883,-2.687494 2.09669,-6.374936 2.59529,-8.194315 1.23868,-4.519845 3.67804,-3.769658 5.44424,-3.783281 1.76621,-0.01363 2.53732,0.05384 2.6667,0.176166 0.12927,0.122329 -0.64224,2.543689 -1.71467,5.380815 -2.12596,5.624259 -2.84486,9.166347 -3.76627,18.556421 -1.14326,11.650941 -1.05528,11.433061 -4.00482,9.916881 z"
         id="path99" /><path
         style="fill:#017a01;fill-opacity:1;stroke:#1a1a1a;stroke-width:1.04813;stroke-linejoin:round;stroke-dasharray:none"
         d="m 214.97287,94.74106 c 0.93782,-3.38172 2.2008,-12.444212 2.19806,-15.7722 -0.002,-1.880782 0.67565,-7.15408 1.06546,-8.296712 0.11244,-0.329573 0.17422,-0.803133 0.13732,-1.052352 -0.0369,-0.249219 1.10072,-0.755807 2.52806,-1.125745 1.42733,-0.369942 3.54428,-0.938133 4.70434,-1.262648 1.16006,-0.324514 2.88053,-0.720817 3.82328,-0.880668 1.64389,-0.278738 1.73994,-0.372091 2.34476,-2.279069 1.2296,-3.876788 1.53574,-5.248466 2.45356,-10.993102 0.51044,-3.19484 1.04127,-6.116069 1.17962,-6.491618 0.21616,-0.586836 0.84447,-0.682816 4.46988,-0.682816 3.21064,0 4.17733,0.119289 4.04659,0.499355 -0.53625,1.558937 -1.54194,4.959675 -2.45135,8.289296 -0.5701,2.087306 -1.25005,3.981774 -1.511,4.209931 -0.26095,0.228157 -0.39078,0.870786 -0.28851,1.428059 0.10228,0.557275 -0.007,2.078396 -0.24211,3.380269 -0.23542,1.301871 -0.59229,4.710468 -0.79306,7.574653 -0.20076,2.864188 -0.63367,6.729199 -0.96203,8.588913 -0.32837,1.85971 -0.8241,4.770177 -1.10165,6.467702 -0.27754,1.697524 -0.71169,3.346322 -0.96477,3.664 -0.25309,0.317677 -1.18366,0.701415 -2.06792,0.852755 -0.88426,0.151341 -2.81573,0.690871 -4.29215,1.198964 -1.47644,0.508093 -3.54726,1.105092 -4.60186,1.326672 -1.05459,0.22158 -3.48858,0.774707 -5.40888,1.229164 -4.25584,1.007204 -4.51179,1.014834 -4.26564,0.127197 z m 10.54062,-8.489029 c 1.70332,-0.878865 3.49953,-1.60069 3.99158,-1.604054 0.49206,-0.0033 1.092,-0.138191 1.33322,-0.299613 0.46311,-0.309912 0.73941,-4.434204 0.60175,-8.982277 -0.0729,-2.411686 -0.1635,-2.696518 -0.85682,-2.696518 -0.42635,0 -1.41863,0.429389 -2.20504,0.954197 -0.78643,0.524807 -2.40334,1.262329 -3.59315,1.638934 l -2.16327,0.684741 0.18907,1.468527 c 0.15757,1.223745 -0.43067,5.727557 -1.24537,9.535162 -0.27137,1.268233 0.34758,1.158634 3.94803,-0.699099 z"
         id="path100" /><path
         style="fill:#ff7d46;fill-opacity:0.996078;stroke:#1a1a1a;stroke-width:1.04813;stroke-linejoin:round;stroke-dasharray:none"
         d="m 51.006396,66.547446 c 0,-0.233281 0.355994,-3.434981 0.791096,-6.46813 0.435103,-3.033151 1.026282,-7.672035 1.31373,-10.308631 0.598904,-5.493421 1.39482,-11.962345 1.480299,-12.031349 0.0319,-0.02576 3.905197,-0.143883 8.607317,-0.262504 l 8.549309,-0.215678 -0.112581,2.659409 -0.112583,2.659408 -1.53395,-0.02684 c -0.843672,-0.01474 -3.028807,-0.173021 -4.855855,-0.351707 -3.739752,-0.365757 -5.098417,-0.149435 -5.492105,0.874435 -0.410564,1.067753 -1.298346,7.052845 -1.096755,7.393906 0.09741,0.164786 2.324029,0.299613 4.948058,0.299613 h 4.770963 v 2.012103 2.012101 l -4.951964,-0.272331 -4.951965,-0.272332 -0.414726,1.555974 c -0.453997,1.728039 -0.416974,3.517465 -0.419061,5.287479 l 2.51759,0.28086 c 1.384674,0.154469 3.886364,0.156478 5.559306,0.0045 4.029474,-0.366159 4.579763,-0.16123 4.572323,1.702749 -0.0032,0.809129 -0.132658,2.727142 -0.287616,2.968728 -0.180838,0.281936 -3.234677,0.535561 -8.526729,0.708159 -4.534739,0.147896 -8.719549,-0.153499 -9.299575,-0.02301 -0.631284,0.142025 -1.054588,0.06701 -1.054588,-0.186888 z"
         id="path101" /><path
         style="fill:#ff7d46;fill-opacity:0.996078;stroke:#1a1a1a;stroke-width:1.04813;stroke-linejoin:round;stroke-dasharray:none"
         d="m 73.183693,65.460943 c -1.160047,-0.413177 -2.349977,-0.845405 -2.644279,-0.960507 -0.367135,-0.143586 0.306108,-1.115333 2.144825,-3.095792 1.47396,-1.587585 2.902434,-3.323627 3.174389,-3.857872 0.45777,-0.899274 0.383427,-1.07714 -1.001834,-2.396905 -0.822964,-0.784051 -2.576224,-2.45429 -3.896134,-3.711639 l -2.399833,-2.286086 1.544457,-1.608884 c 0.849454,-0.884885 1.673887,-1.609983 1.832076,-1.611328 0.158187,-0.0014 2.242779,-1.888908 4.632427,-4.194583 2.38963,-2.305678 4.56791,-4.192139 4.84061,-4.192139 0.2727,0 1.21859,0.816832 2.102,1.815183 l 1.60617,1.815184 -2.02156,2.479269 c -1.11184,1.3636 -2.68059,3.194246 -3.4861,4.068106 -0.80551,0.873857 -1.41555,1.853906 -1.35566,2.177889 0.0599,0.32398 1.4497,1.51756 3.08845,2.652397 1.63876,1.134841 3.3159,2.380434 3.727,2.767985 0.73517,0.693068 0.72683,0.721828 -0.50798,1.751033 -0.6905,0.575513 -2.49556,2.515545 -4.01126,4.311179 -2.39503,2.837397 -4.700433,5.030647 -5.126036,4.876688 -0.07291,-0.02638 -1.081677,-0.386001 -2.241728,-0.799178 z"
         id="path102" /><path
         id="path103"
         style="fill:#ff7d46;fill-opacity:0.996078;stroke:#1a1a1a;stroke-width:1.13102;stroke-linejoin:round;stroke-dasharray:none"
         d="m 94.81218,38.116451 c -1.213921,0.146853 -1.548511,1.566283 -1.984048,2.504376 -1.768971,4.43691 -3.239202,8.99139 -5.214721,13.34608 -1.726122,4.16793 -3.987651,8.09166 -5.680452,12.27167 -0.393525,0.59283 1.65309,1.32575 2.333926,1.34858 1.175551,0.30378 2.512399,-9.7e-4 3.246094,-1.02344 2.400551,-3.19733 3.205045,-7.2999 5.99478,-10.17213 0.898434,-0.77419 3.976846,-0.52785 5.10869,0.13111 2.911451,2.65798 4.023861,6.91777 6.999471,9.50885 0.44866,0.48476 3.94033,-0.19782 4.0099,-1.0108 -0.42268,-2.77326 -1.32772,-5.45122 -2.03537,-8.16182 -1.34878,-4.99014 -2.70956,-9.8996 -3.38846,-15.03544 -0.20454,-0.94642 -0.002,-2.294731 -0.91602,-2.955082 -0.95557,-0.379324 -3.626427,-0.09946 -4.619431,-0.364329 -0.764127,-0.08048 -3.080852,-0.403923 -3.854359,-0.387625 z m 2.345298,7.941406 c 1.176794,1.68922 3.080322,3.51483 3.868862,5.4207 -0.91227,-0.29367 -1.713634,-0.86964 -2.317161,-1.34342 -0.532967,-0.41838 -0.691417,-0.94866 -1.180874,-0.89017 -1.076224,0.1286 -1.309761,1.818 -2.062228,2.51406 -0.328497,0.12666 -1.329001,0.24445 -0.970694,-0.37109 0.685667,-1.887 1.554061,-3.71184 2.566395,-5.44531 l 0.0639,0.0769 z" /></g></g><metadata
     id="metadata5"><rdf:RDF><cc:Work
         rdf:about=""><dc:title>Pesa playground</dc:title></cc:Work></rdf:RDF></metadata></svg>
