<?xml version="1.0" encoding="UTF-8" standalone="no"?>
<!-- Created with Inkscape (http://www.inkscape.org/) -->

<svg
   width="874.84686"
   height="310.51184"
   viewBox="0 0 231.4699 82.15626"
   version="1.1"
   id="svg1"
   xml:space="preserve"
   xmlns="http://www.w3.org/2000/svg"
   xmlns:svg="http://www.w3.org/2000/svg"
   xmlns:rdf="http://www.w3.org/1999/02/22-rdf-syntax-ns#"
   xmlns:cc="http://creativecommons.org/ns#"
   xmlns:dc="http://purl.org/dc/elements/1.1/"><title
     id="title5">Pesa playground</title><defs
     id="defs1" /><g
     id="layer5"
     transform="translate(-17.060614,-19.831327)"><g
       id="g169"
       style="display:inline"><g
         id="g142"
         transform="matrix(0.99492211,0,0,0.98324934,1.4399903,1.3759319)"
         style="display:inline;fill:#1a1a1a;stroke-width:8.90535;stroke-dasharray:none"><path
           id="path130"
           style="fill:#1a1a1a;fill-opacity:0.94902;stroke:#1a1a1a;stroke-width:8.90535;stroke-linejoin:round;stroke-dasharray:none"
           d="m 58.445919,23.226639 c -0.56865,-0.01593 -1.812513,0.339028 -4.402969,1.170965 -2.082392,0.66876 -4.735677,1.368721 -5.895729,1.555681 -2.726976,0.43949 -7.363466,1.846925 -9.146666,2.776576 -0.769374,0.401105 -2.061778,0.83645 -2.871772,0.967045 -3.909582,0.630347 -5.613489,2.019899 -5.627719,4.589259 -0.0033,0.593882 -0.440057,3.596583 -0.970762,6.67261 -1.309768,7.591559 -1.638958,10.473976 -2.07449,18.183074 -0.205021,3.628972 -0.637437,8.436751 -0.961413,10.683745 -0.32398,2.246991 -0.589002,4.888559 -0.589002,5.870594 0,0.982038 -0.36433,2.735966 -0.809228,3.897612 -0.916901,2.394072 -2.046448,6.529848 -2.431839,8.903646 -0.142682,0.878865 -0.765905,3.26272 -1.385244,5.297725 -0.619342,2.035 -1.126064,3.781991 -1.126064,3.88237 0,0.10029 2.584631,0.143208 5.744065,0.09513 l 5.744584,-0.08724 0.376046,-1.997683 c 0.206724,-1.098583 0.480769,-2.89626 0.609259,-3.994842 0.591203,-5.054774 1.881383,-12.742009 2.748674,-16.378799 0.523973,-2.197165 1.089147,-4.683166 1.255914,-5.52477 0.340989,-1.72085 0.817501,-2.366002 1.819464,-2.462812 1.267696,-0.122486 3.351929,-0.651455 6.245287,-1.585112 1.581886,-0.510458 4.307441,-1.334177 6.057264,-1.830554 0.195776,-0.05554 0.38236,-0.109271 0.559395,-0.161875 -0.186106,1.524863 -0.306447,2.663083 -0.306447,2.79865 0,0.253898 0.423102,0.328601 1.054386,0.186576 0.580026,-0.130489 4.764631,0.171021 9.29937,0.02313 5.292052,-0.172598 8.346181,-0.426004 8.527019,-0.70794 0.154958,-0.241586 0.284548,-2.159804 0.287748,-2.968933 0.0074,-1.863979 -0.54282,-2.068999 -4.572294,-1.70284 -1.672942,0.151978 -4.175002,0.150264 -5.559676,-0.0042 l -2.517541,-0.281178 c 0.0021,-1.770014 -0.03484,-3.559175 0.419158,-5.287214 l 0.414482,-1.556206 4.951977,0.272244 4.951976,0.272769 v -2.012399 -2.011874 h -4.770705 c -2.624029,0 -4.850931,-0.134788 -4.948341,-0.299574 -0.201591,-0.341061 0.686413,-6.326462 1.096977,-7.394215 0.393688,-1.02387 1.752402,-1.240302 5.492154,-0.874545 1.827048,0.178686 4.012216,0.33739 4.855888,0.35213 l 1.533793,0.0268 0.11271,-2.659373 0.11271,-2.659374 -8.549353,0.215483 c -2.578117,0.06504 -4.907201,0.129621 -6.490445,0.179218 0.0914,-0.902083 0.181242,-1.827924 0.260221,-2.689856 0.241589,-2.636595 0.771795,-6.163489 1.178003,-7.837795 0.406205,-1.6743 0.738589,-3.247342 0.738589,-3.495552 0,-0.253729 -0.09822,-0.396708 -0.439414,-0.406264 z m -9.101997,11.939326 c 0.559782,0 0.715092,0.192455 0.563551,0.699006 -0.115029,0.384504 -0.385386,1.912611 -0.600948,3.395694 -0.215561,1.483085 -0.574247,3.910293 -0.796762,5.393378 -0.22251,1.483083 -0.353066,3.817071 -0.290346,5.18683 0.113893,2.487331 0.112465,2.491468 -1.228904,3.203862 -0.738683,0.392313 -2.068364,0.939641 -2.954358,1.216165 -0.885993,0.27652 -2.395522,1.126626 -3.354816,1.889416 -1.783645,1.41828 -3.179916,1.778262 -3.443634,0.887685 C 36.94448,56.047795 36.780236,46.876813 36.996703,43.585038 l 0.221265,-3.365737 2.277058,-0.53713 c 1.252389,-0.295356 3.064671,-1.007948 4.026922,-1.584062 3.900708,-2.335404 5.084789,-2.932144 5.821974,-2.932144 z m 32.066309,2.379247 c -0.2727,0 -2.450676,1.886251 -4.840306,4.191929 -2.389648,2.305675 -4.474357,4.193158 -4.632544,4.194558 -0.158189,0.0013 -0.982476,0.726506 -1.83193,1.611391 l -1.544701,1.609289 2.400155,2.285695 c 1.31991,1.257349 3.073069,2.92751 3.896033,3.711561 1.385261,1.319765 1.459696,1.497841 1.001926,2.397115 -0.271955,0.534245 -1.700624,2.270084 -3.174584,3.857669 -1.838717,1.980459 -2.511745,2.952535 -2.14461,3.096121 0.294302,0.115102 1.484228,0.547035 2.644275,0.960212 1.160051,0.413177 2.168309,0.773009 2.241219,0.799389 0.425603,0.153959 2.731465,-2.039348 5.126495,-4.876745 1.5157,-1.795634 3.320321,-3.735721 4.010821,-4.311234 1.23481,-1.029205 1.243145,-1.058124 0.507975,-1.751192 -0.4111,-0.387551 -2.087948,-1.6328 -3.726708,-2.767641 -1.63875,-1.134837 -3.028463,-2.328561 -3.088363,-2.652541 -0.05989,-0.323983 0.550129,-1.304096 1.355639,-2.177953 0.80551,-0.87386 2.374385,-2.704296 3.486225,-4.067896 l 2.021511,-2.479104 -1.606509,-1.815312 c -0.88341,-0.998351 -1.829319,-1.815311 -2.102019,-1.815311 z m 13.402124,0.571292 c -1.213921,0.146853 -1.548578,1.566238 -1.984115,2.504331 -1.768971,4.43691 -3.239275,8.991582 -5.214794,13.346272 -1.726122,4.16793 -3.987896,8.091476 -5.680697,12.271486 -0.393525,0.59283 1.653355,1.325777 2.334191,1.348607 1.175551,0.30378 2.512567,-8.11e-4 3.246262,-1.023281 2.400551,-3.19733 3.204681,-7.300137 5.994416,-10.172367 0.898434,-0.77419 3.976992,-0.527568 5.108836,0.131392 2.911446,2.65798 4.023846,6.917495 6.999456,9.508575 0.44866,0.48476 3.94021,-0.197687 4.00978,-1.010667 -0.42268,-2.77326 -1.32736,-5.45147 -2.03501,-8.16207 -1.34878,-4.99014 -2.70968,-9.899608 -3.38858,-15.035448 -0.20454,-0.94642 -0.002,-2.294391 -0.91622,-2.954742 -0.95557,-0.379324 -3.62656,-0.09988 -4.619564,-0.364745 -0.764127,-0.08048 -3.080454,-0.403641 -3.853961,-0.387343 z m 145.064765,7.787865 c -3.62541,0 -4.25381,0.09588 -4.46997,0.682713 -0.13835,0.375549 -0.66912,3.29645 -1.17956,6.49129 -0.91782,5.744636 -1.22406,7.116516 -2.45366,10.993304 -0.60482,1.906978 -0.70069,2.000125 -2.34458,2.278863 -0.94275,0.159851 -2.66325,0.556338 -3.82331,0.880852 -1.16006,0.324515 -3.2769,0.892472 -4.70423,1.262414 -0.56395,0.146166 -1.08266,0.313738 -1.50159,0.478267 0.12226,-0.33714 0.24943,-0.680223 0.38228,-1.03169 1.07243,-2.837126 1.84382,-5.258436 1.71455,-5.380765 -0.12938,-0.122326 -0.9004,-0.189695 -2.66661,-0.176065 -1.7662,0.01362 -4.20517,-0.736807 -5.44385,3.783038 -0.4986,1.819379 -1.66662,5.506636 -2.59545,8.19413 -0.9288,2.687502 -1.68858,5.43786 -1.68858,6.111829 0,0.673972 -0.1451,1.807352 -0.90376,1.934616 -1.7095,0.286751 -2.52292,-2.183844 -3.61659,-3.410411 -4.01152,-4.498976 -10.21811,-15.12405 -10.71318,-14.38532 -0.17832,0.266086 -0.30753,1.366945 -0.38644,3.086135 -1.25944,-0.172382 -3.16538,-0.143152 -4.4975,0.138225 -1.12127,0.23684 -1.14822,0.331869 -0.82273,2.93845 0.405,3.243451 -0.2423,16.270132 -0.91622,16.953245 -0.30452,0.308659 -1.7777,0.483522 -4.07523,0.483522 -3.14842,0 -3.66673,-0.101085 -4.14639,-0.808323 -0.40565,-0.598229 -0.80718,-0.847564 -0.34644,-8.285053 0.70662,-11.406633 0.87814,-10.839937 -3.23639,-10.671131 l -2.45002,0.100383 -0.30385,3.094019 c -0.16702,1.701572 -0.5554,7.009124 -0.86272,11.794795 -0.30733,4.785669 -0.62096,9.258364 -0.69756,9.939541 -0.133,1.184194 -0.0525,1.245923 1.84232,1.40642 3.98672,0.33769 19.13342,-0.499829 20.42443,-1.129446 0.26421,-0.128837 0.40953,-3.200101 0.34333,-7.250209 0.33991,7.425247 0.46541,8.139165 1.48393,8.444825 2.36244,0.70897 3.62826,-0.692838 4.32506,-4.790026 0.35799,-2.105377 0.12682,-2.388043 0.40305,-3.551263 0.12214,-0.514284 -0.0116,-1.366938 0.55005,-1.496817 1.19678,-0.27674 1.86189,1.478242 2.71128,2.292002 1.78004,1.70538 2.799,3.53857 4.97743,5.409145 1.29525,1.62214 3.0159,3.288617 3.82331,3.703677 1.80734,0.929045 2.47393,1.370469 2.98241,-1.107372 0.27881,0.220839 1.31259,0.0017 4.24455,-0.692173 1.9203,-0.454457 4.35394,-1.007723 5.40853,-1.229303 1.0546,-0.22158 3.12546,-0.81844 4.6019,-1.326533 1.47642,-0.508093 3.40808,-1.048005 4.29234,-1.199346 0.88426,-0.15134 1.81464,-0.534795 2.06773,-0.852472 0.25308,-0.317678 0.68751,-1.966735 0.96505,-3.664259 0.27755,-1.697525 0.77328,-4.607929 1.10165,-6.467639 0.32836,-1.859714 0.76118,-5.724643 0.96194,-8.588831 0.20077,-2.864185 0.5577,-6.272614 0.79312,-7.574485 0.23511,-1.301873 0.34432,-2.823178 0.24204,-3.380453 -0.10227,-0.557273 0.0273,-1.199811 0.28827,-1.427968 0.26095,-0.228157 0.94084,-2.122494 1.51094,-4.2098 0.90941,-3.329621 1.91533,-6.73032 2.45158,-8.289257 0.13074,-0.380066 -0.83602,-0.49929 -4.04666,-0.49929 z m -142.815236,0.03837 0.06389,0.07673 0.03168,0.03837 c 1.176794,1.68922 3.080486,3.514838 3.869026,5.420708 -0.91227,-0.29367 -1.713527,-0.869572 -2.317054,-1.343352 -0.532967,-0.41838 -0.691662,-0.948802 -1.181119,-0.890312 -1.076224,0.1286 -1.309558,1.818257 -2.062025,2.514317 -0.328497,0.12666 -1.329069,0.244489 -0.970762,-0.371051 0.685667,-1.887 1.55403,-3.711939 2.566364,-5.44541 z m 62.563506,19.005588 -2.49365,0.133494 c -1.54355,0.08292 -2.50531,0.311655 -2.52481,0.599673 -0.1782,2.629375 -0.98903,5.059117 -1.68806,5.059117 -0.26178,0 -1.1465,0.557751 -1.96645,1.239289 -1.54125,1.281085 -2.36586,1.352697 -5.94871,0.518735 -0.92077,-0.214325 -1.05917,-0.07384 -1.62313,1.650284 -0.33906,1.036497 -0.52292,2.042314 -0.40877,2.234715 0.11415,0.192401 0.96433,0.547891 1.88906,0.790454 1.39867,0.366879 1.70202,0.618715 1.80492,1.497868 0.068,0.581253 -0.0828,1.605194 -0.33501,2.275184 -0.38444,1.021253 -0.34538,1.482166 0.24256,2.850155 l 0.70171,1.631363 -1.42835,1.119459 -1.42784,1.118935 1.36239,1.910439 1.36291,1.910439 0.96713,-0.906079 c 1.87366,-1.755711 2.28349,-1.983999 2.78815,-1.553053 0.26365,0.225138 1.20525,0.611774 2.09215,0.858778 2.15004,0.598789 2.72808,1.288535 3.02344,3.608024 l 0.24775,1.947229 1.39304,-0.231775 c 3.34035,-0.556217 3.29923,-0.517098 3.42441,-3.224885 0.093,-2.011418 0.23547,-2.470072 0.76716,-2.472272 0.35904,-0.0014 1.17009,-0.359696 1.80284,-0.796235 1.45368,-1.002908 2.04516,-1.001285 3.0785,0.01 l 0.8274,0.809374 1.62313,-1.50838 c 1.18078,-1.097128 1.55224,-1.698914 1.36188,-2.207385 -0.14394,-0.384504 -0.54528,-0.70304 -0.89182,-0.70794 -0.34654,-0.0049 -1.04552,-0.341451 -1.55301,-0.747883 -0.67764,-0.542649 -0.8432,-0.938552 -0.6238,-1.48946 0.16431,-0.412618 0.5125,-1.769853 0.77339,-3.016234 0.49237,-2.352259 1.68397,-4.291019 3.16991,-5.156347 1.16733,-0.679786 1.09323,-1.142019 -0.49343,-3.072996 l -1.35616,-1.650809 -1.92023,1.179375 c -2.28807,1.405372 -2.40793,1.413377 -5.15506,0.34267 -2.41966,-0.943072 -2.86757,-1.674597 -2.86658,-4.681759 z m -16.98652,1.711249 -6.38085,0.254375 c -2.63809,0.105194 -6.24282,0.255103 -8.01385,0.255951 l -2.80217,0.0011 c -0.27982,-0.187606 -0.616,-0.288247 -1.00556,-0.2549 -0.42187,-0.015 -0.84337,-0.01058 -1.26527,0 -4.38625,0.266865 -8.79284,0.601207 -13.10347,1.470539 -1.45641,0.603338 -2.03224,2.218384 -2.83177,3.453507 -3.39022,6.077913 -5.88798,12.593963 -8.533775,19.015573 -0.551167,1.61933 -1.404997,3.275604 -1.19826,5.028634 0.32464,1.220969 1.762556,1.579536 2.865025,1.336519 3.12328,-0.27131 6.19221,-0.992763 9.32949,-1.141533 2.83426,-0.23707 5.77057,-0.0088 8.62259,-0.430966 1.09748,-0.16615 2.03325,-1.016259 2.17473,-2.136959 0.6988,-2.52056 1.03784,-5.156719 1.00193,-7.767369 -0.29665,-1.35038 -1.89062,-1.481519 -3.02448,-1.503649 -1.55471,-0.14215 -3.55502,-0.09499 -4.40245,1.46686 -0.69502,1.35941 -0.49646,2.931268 -0.42694,4.398478 -2.11747,-0.20239 -4.28556,-0.211348 -6.32995,-0.863508 0.16387,-1.61865 0.83945,-3.139141 1.2798,-4.697001 1.11268,-3.49276 2.30498,-6.968042 3.72619,-10.345805 3.7684,-0.674595 7.646,-0.54169 11.44554,-1.022755 l 0.0151,0.276449 c 0.18909,2.581667 0.2978,8.334132 0.241,12.783389 l -0.10336,8.089541 h 3.0972 c 2.65031,0 2.72322,-0.102515 2.72322,-3.837697 0,-2.757305 0.10544,-3.353123 0.59264,-3.353123 0.32584,0 2.19768,1.617962 4.15989,3.59541 l 3.56777,3.59541 h 2.19447 3.78176 l -2.59077,-3.00362 c -3.0058,-3.484727 -5.28934,-5.050115 -7.62586,-7.852511 -0.28133,-0.337427 -0.84508,-0.635112 -0.76508,-1.07321 0.13172,-0.720737 -2.29796,-0.28627 4.54684,-1.059545 1.47642,-0.166794 4.48991,-0.482317 4.75617,-0.701107 0.35978,-0.29563 0.44242,-1.937672 0.38332,-6.393534 z m -33.8463,1.602982 c -0.11608,-0.08164 -1.77769,-0.03708 -3.69242,0.09881 l -3.48103,0.247017 -2.325886,4.167753 c -2.824755,5.062162 -2.629337,6.807844 -4.074188,5.160026 -3.109215,-3.545986 -3.914844,-4.395286 -5.691085,-6.670508 l -1.640271,-2.143792 -2.702967,0.214958 c -1.486633,0.118322 -2.815072,0.302979 -2.95176,0.410468 -0.740891,0.582643 3.593846,7.787299 6.516934,10.831955 1.891853,1.970535 1.504074,2.21577 1.428874,3.461916 -0.0816,1.352872 -1.232071,2.422127 -1.991905,3.544431 -2.017716,2.980227 -4.019772,5.323876 -5.282317,6.73778 -0.462303,-2.464674 -1.253299,-4.863809 -1.886467,-7.289101 -1.348784,-4.99014 -2.709675,-9.899608 -3.388577,-15.035448 -0.204542,-0.94642 -0.0025,-2.294917 -0.916225,-2.955268 -0.955578,-0.379324 -3.626542,-0.09935 -4.619559,-0.364219 -0.764122,-0.08048 -3.080452,-0.403641 -3.853962,-0.387343 -1.213931,0.146853 -1.548579,1.566238 -1.984114,2.504331 -1.768978,4.43691 -3.239274,8.991056 -5.214794,13.345746 -1.263972,3.052012 -2.815003,5.973244 -4.219621,8.959883 -0.152608,-0.687566 -0.316893,-1.244331 -0.451879,-1.420611 -0.229098,-0.299173 -1.813812,-0.378416 -4.901075,-0.245965 -5.1807,0.222268 -7.461443,0.02146 -7.805051,-1.106321 -0.134939,-0.442881 0.44591,-3.422309 1.314086,-6.739357 1.527224,-5.835102 3.08438,-13.156008 3.09148,-14.536158 0.003,-0.586938 -1.945508,-0.699006 -3.83786,-0.699006 -1.358232,0 -2.395085,0.198383 -2.608955,0.49929 -0.195202,0.274648 -0.830172,3.105686 -1.411215,6.291574 -0.974728,5.344494 -2.648297,12.305726 -3.8898,16.179083 -0.54917,1.713353 -1.724414,6.000892 -1.724414,6.291574 0,0.438642 16.152329,-0.02021 21.179647,-0.501918 0.566819,0.352694 1.500058,0.634531 1.918151,0.648551 1.175551,0.30378 2.512566,-0.0013 3.246261,-1.023806 2.400554,-3.19733 3.204665,-7.299612 5.994416,-10.171842 0.89844,-0.77419 3.976986,-0.528094 5.108836,0.130866 2.91146,2.65798 4.023846,6.918021 6.999459,9.509101 0.271116,0.292934 1.653212,0.159453 2.720107,-0.171335 1.03409,0.612919 6.083482,1.117971 7.05036,0.446207 0.54986,-0.382039 3.83672,-4.346598 5.677581,-6.585366 1.867428,-2.271077 3.709781,-4.566247 5.441772,-6.942227 1.631453,-2.238055 2.849983,-3.648814 4.656433,-6.881261 1.80641,-3.232449 3.53868,-6.27845 3.84929,-6.769315 0.31058,-0.490864 0.4698,-0.9595 0.35371,-1.04115 z m 25.37122,2.985226 c 1.765,0.01863 2.29361,0.301097 1.50263,0.830397 -0.28203,0.188723 -1.54861,0.433766 -2.81412,0.544488 l -2.30095,0.201293 v 1.787457 c 0,1.355695 -0.15575,1.820309 -0.64509,1.922001 -0.88019,0.182904 -1.46368,-1.10427 -1.46368,-3.228038 v -1.768536 l 3.547,-0.219162 c 0.86007,-0.05307 1.58588,-0.07611 2.17421,-0.0699 z m 96.41967,1.421661 c 0.69332,0 0.7836,0.285003 0.8565,2.696689 0.13766,4.548073 -0.13836,8.67257 -0.60147,8.982482 -0.24122,0.161422 -0.84125,0.296273 -1.33331,0.299573 -0.49205,0.0034 -2.28828,0.725169 -3.9916,1.604034 -3.60045,1.857733 -4.21934,1.967238 -3.94797,0.699005 0.8147,-3.807605 1.40258,-8.311634 1.24501,-9.535379 l -0.18907,-1.468437 2.16331,-0.684815 c 1.18981,-0.376605 2.80679,-1.113914 3.59322,-1.638721 0.78641,-0.524808 1.77903,-0.954431 2.20538,-0.954431 z m -72.93647,1.666576 c 1.04608,0 1.06658,0.636946 0.0389,1.209857 -1.69804,0.94667 -3.04229,5.043796 -1.89685,5.781248 0.21092,0.135792 0.38331,0.505907 0.38331,0.822513 0,0.897846 -0.54652,0.684991 -1.69792,-0.661164 -0.87649,-1.024675 -1.01615,-1.470587 -0.81286,-2.599459 0.29967,-1.664041 2.82853,-4.552995 3.98537,-4.552995 z M 136.89948,74.4816 c 0.0253,-0.0018 0.0518,-0.0018 0.0795,0 0.61135,0.03952 0.57498,0.46026 0.57498,1.745411 0,1.706573 -0.0322,1.750847 -1.43823,1.992954 -2.10601,0.362622 -3.46959,0.310552 -3.73865,-0.142955 -0.46638,-0.786091 0.26695,-1.198294 2.13163,-1.198294 1.8497,0 1.89477,-0.02891 1.89477,-1.198821 0,-0.749033 0.11706,-1.171897 0.49603,-1.198295 z m -66.410191,1.636619 0.06389,0.07673 0.03168,0.03837 c 1.176797,1.68922 3.08049,3.514838 3.869024,5.420708 -0.912272,-0.29367 -1.713516,-0.869572 -2.317051,-1.343352 -0.532973,-0.41838 -0.691666,-0.948802 -1.18112,-0.890312 -1.076233,0.1286 -1.309554,1.818257 -2.062025,2.514317 -0.328499,0.12666 -1.329071,0.243964 -0.970762,-0.371576 0.685675,-1.887 1.554029,-3.711414 2.566365,-5.444884 z m 146.867091,0.149787 c -0.11264,1.089468 -0.18609,2.0801 -0.18543,2.700893 0.002,2.966917 -1.00107,10.491217 -1.88335,14.485178 0.20943,-1.617156 0.42583,-3.870696 0.72872,-6.957468 0.43528,-4.435895 0.82548,-7.566807 1.34006,-10.228603 z M 160.793,76.732608 c 0.85756,0 1.5151,1.382856 1.5151,3.186518 0,0.779145 -0.37097,1.462369 -1.17956,2.171121 -1.18879,1.042032 -2.65519,1.385709 -2.65519,0.622273 0,-0.226609 0.25066,-0.512302 0.55732,-0.634886 0.7379,-0.294975 2.23792,-2.947911 1.66676,-2.947911 -0.23889,0 -0.33023,-0.108262 -0.20308,-0.24071 0.12715,-0.132452 0.0738,-0.671598 -0.11843,-1.198295 -0.2966,-0.812678 -0.23379,-0.95811 0.41708,-0.95811 z" /></g><g
         id="logo"
         style="display:inline"><path
           style="fill:#549c0e;fill-opacity:0.94902;stroke:#1a1a1a;stroke-width:1.04571;stroke-linejoin:round;stroke-dasharray:none"
           d="m 172.97003,94.78181 c -1.89479,-0.160497 -1.97556,-0.222157 -1.84256,-1.406351 0.0766,-0.681177 0.39053,-5.154054 0.69786,-9.939723 0.30732,-4.785671 0.69541,-10.093414 0.86243,-11.794986 l 0.30368,-3.093767 2.45035,-0.10053 c 4.11453,-0.168806 3.94275,-0.735323 3.23613,10.67131 -0.46074,7.437489 -0.0591,7.686679 0.34655,8.284908 0.47966,0.707238 0.99805,0.808289 4.14647,0.808289 2.29753,0 3.77063,-0.17474 4.07515,-0.483399 0.67392,-0.683113 1.32129,-13.709733 0.91629,-16.953184 -0.32549,-2.606581 -0.29879,-2.702005 0.82248,-2.938845 1.96445,-0.414942 5.17721,-0.281261 5.72349,0.238156 0.36775,0.349669 0.28514,2.068536 -0.28344,5.897493 -0.52669,3.546826 -0.76291,7.818811 -0.68737,12.430677 0.0662,4.050108 -0.079,7.121371 -0.34321,7.250208 -1.29101,0.629617 -16.43764,1.467434 -20.42436,1.129744 z"
           id="letter_u" /><path
           style="fill:#ff684d;fill-opacity:0.996078;stroke:#1a1a1a;stroke-width:1.25776;stroke-linejoin:round;stroke-dasharray:none"
           d="m 20.152874,97.677699 c 0,-0.100379 0.506732,-1.847507 1.126074,-3.882507 0.619339,-2.035005 1.242814,-4.41908 1.385496,-5.297945 0.385391,-2.373798 1.514941,-6.509238 2.431842,-8.90331 0.444898,-1.161646 0.808903,-2.915562 0.808903,-3.8976 0,-0.982035 0.265074,-3.623969 0.589054,-5.87096 0.323976,-2.246994 0.756796,-7.054599 0.961817,-10.683571 0.435532,-7.709098 0.76433,-10.591616 2.074098,-18.183175 0.530705,-3.076027 0.967611,-6.07868 0.970901,-6.672562 0.01423,-2.56936 1.718204,-3.958875 5.627786,-4.589222 0.809994,-0.130595 2.102205,-0.565622 2.871579,-0.966727 1.7832,-0.929651 6.42007,-2.337241 9.147046,-2.776731 1.160052,-0.18696 3.812959,-0.8871 5.895351,-1.55586 4.144729,-1.3311 4.842303,-1.44125 4.842303,-0.76464 0,0.24821 -0.33235,1.82118 -0.738555,3.49548 -0.406208,1.674306 -0.936223,5.201405 -1.177812,7.838 -0.241591,2.636597 -0.584956,5.872418 -0.763034,7.190714 -0.17808,1.3183 -0.33936,3.835048 -0.358401,5.592779 -0.01904,1.75773 -0.292457,4.977889 -0.60759,7.15591 -0.315133,2.178018 -0.572973,4.571762 -0.572973,5.319427 0,2.256596 -0.484865,2.713303 -3.913021,3.685775 -1.749823,0.496377 -4.475769,1.320147 -6.057655,1.830605 -2.893358,0.933657 -4.977591,1.46267 -6.245287,1.585156 -1.001963,0.09681 -1.478393,0.741649 -1.819382,2.462499 -0.166767,0.841604 -0.73192,3.327873 -1.255893,5.525038 -0.867291,3.63679 -2.157261,11.324075 -2.748464,16.378849 -0.12849,1.098582 -0.402753,2.896261 -0.609477,3.994844 l -0.375856,1.997421 -5.744425,0.08741 c -3.159434,0.04808 -5.744425,0.0052 -5.744425,-0.09509 z M 40.681299,56.150336 c 0.959294,-0.76279 2.469071,-1.613136 3.355064,-1.889656 0.885994,-0.276524 2.215275,-0.823751 2.953958,-1.216064 1.341369,-0.712394 1.342918,-0.716436 1.229025,-3.203767 -0.06272,-1.369759 0.06802,-3.703905 0.29053,-5.186988 0.222515,-1.483085 0.58094,-3.909953 0.796501,-5.393038 0.215562,-1.483083 0.486045,-3.01111 0.601074,-3.395614 0.151541,-0.506551 -0.0036,-0.699099 -0.563382,-0.699099 -0.737185,0 -1.921593,0.596406 -5.822301,2.93181 -0.962251,0.576114 -2.774231,1.289131 -4.02662,1.584487 l -2.277074,0.537007 -0.221331,3.36574 c -0.216467,3.291775 -0.05209,12.46251 0.241135,13.452716 0.263718,0.890577 1.659776,0.530746 3.443421,-0.887534 z"
           id="letter_p" /><path
           style="fill:#ff694d;fill-opacity:0.94902;stroke:#1a1a1a;stroke-width:1.25776;stroke-linejoin:round;stroke-dasharray:none"
           d="m 34.596731,97.615942 c 0,-0.290682 1.174829,-4.577873 1.723999,-6.291226 1.241503,-3.873357 2.915182,-10.834615 3.88991,-16.179109 0.581043,-3.185888 1.21615,-6.01723 1.411352,-6.291878 0.21387,-0.300907 1.250656,-0.499353 2.608888,-0.499353 1.892352,0 3.840889,0.112158 3.837858,0.699096 -0.0071,1.38015 -1.56399,8.701257 -3.091214,14.536359 -0.868176,3.317048 -1.449224,6.296566 -1.314285,6.739447 0.343608,1.127779 2.624168,1.328121 7.804868,1.105853 3.087263,-0.132451 4.672069,-0.05277 4.901167,0.246403 0.43154,0.563551 1.162451,5.01453 0.854379,5.202855 -0.885536,0.541329 -22.626922,1.240461 -22.626922,0.731553 z"
           id="letter_l" /><path
           id="letter_a1"
           style="fill:#ff7d46;fill-opacity:0.996078;stroke:#1a1a1a;stroke-width:1.13102;stroke-linejoin:round;stroke-dasharray:none"
           d="m 68.239582,68.291847 c -1.213931,0.146853 -1.548521,1.566283 -1.984056,2.504376 -1.768978,4.43691 -3.239211,8.99139 -5.214731,13.34608 -1.726122,4.16793 -3.987651,8.09166 -5.680452,12.27167 -0.393525,0.59283 1.65309,1.32575 2.333926,1.34858 1.175551,0.30378 2.512399,-9.7e-4 3.246094,-1.02344 2.400554,-3.19733 3.205041,-7.2999 5.994792,-10.17213 0.89844,-0.77419 3.976874,-0.52785 5.108724,0.13111 2.91146,2.65798 4.023866,6.91777 6.999479,9.50885 0.448655,0.48476 3.940324,-0.19782 4.009896,-1.0108 -0.422674,-2.77326 -1.327716,-5.45122 -2.035369,-8.16182 -1.348784,-4.99014 -2.709557,-9.8996 -3.388459,-15.03544 -0.204542,-0.94642 -0.0023,-2.294731 -0.916016,-2.955082 -0.955578,-0.379324 -3.626431,-0.09946 -4.619448,-0.364329 -0.764122,-0.08048 -3.08087,-0.403923 -3.85438,-0.387625 z m 2.345313,7.941406 c 1.176797,1.68922 3.080345,3.51483 3.868879,5.4207 -0.912272,-0.29367 -1.713635,-0.86964 -2.31717,-1.34342 -0.532973,-0.41838 -0.691422,-0.94866 -1.180876,-0.89017 -1.076233,0.1286 -1.309769,1.818 -2.06224,2.51406 -0.328499,0.12666 -1.329012,0.24445 -0.970703,-0.37109 0.685675,-1.887 1.55407,-3.71184 2.566406,-5.44531 l 0.06389,0.0769 z" /><path
           style="fill:#ff943e;fill-opacity:0.94902;stroke:#1a1a1a;stroke-width:1.002;stroke-linejoin:round;stroke-dasharray:none"
           d="m 81.578518,95.820965 c 0,-0.140555 3.282727,-3.323494 6.608251,-8.235393 0.759834,-1.122304 1.910418,-2.191722 1.992018,-3.544594 0.0752,-1.246146 0.462707,-1.4913 -1.429146,-3.461835 -2.923088,-3.044656 -7.257353,-10.249178 -6.516462,-10.831821 0.136688,-0.107489 1.464857,-0.292247 2.95149,-0.410569 l 2.702969,-0.215126 1.640372,2.144168 c 1.776241,2.275222 2.581625,3.12422 5.69084,6.670206 1.444851,1.647818 1.249611,-0.09784 4.074366,-5.160002 l 2.325664,-4.167692 3.48137,-0.24707 c 1.91473,-0.135888 3.57631,-0.180273 3.69239,-0.09863 0.11609,0.08165 -0.0431,0.550053 -0.35368,1.040917 -0.31061,0.490865 -2.04273,3.537209 -3.84914,6.769658 -1.80645,3.232447 -3.02519,4.643112 -4.656647,6.881167 -1.731991,2.37598 -3.574552,4.670854 -5.44198,6.941931 -1.840861,2.238768 -5.12773,6.203749 -5.67759,6.585788 -1.078419,0.74926 -7.235085,0.03439 -7.235085,-0.661099 z"
           id="letter_y" /><path
           id="letter_g"
           style="fill:#ffd429;fill-opacity:0.94902;stroke:#1a1a1a;stroke-width:1.23809;stroke-linejoin:round;stroke-dasharray:none"
           d="m 123.17126,66.916011 c -4.38625,0.266865 -8.79289,0.601371 -13.10352,1.470703 -1.45641,0.603338 -2.03254,2.218009 -2.83207,3.453132 -3.39022,6.077913 -5.8877,12.593973 -8.533491,19.015583 -0.551167,1.61933 -1.404871,3.27566 -1.198134,5.02869 0.32464,1.220969 1.762471,1.579656 2.864935,1.336639 3.12328,-0.27131 6.1923,-0.992759 9.32958,-1.141529 2.83426,-0.23707 5.77054,-0.009 8.62256,-0.43116 1.09748,-0.16615 2.03313,-1.01612 2.17461,-2.13682 0.6988,-2.52056 1.03761,-5.15646 1.0017,-7.76711 -0.29665,-1.35038 -1.89034,-1.48184 -3.0242,-1.50397 -1.55471,-0.14215 -3.5549,-0.0949 -4.40233,1.46695 -0.69502,1.35941 -0.49651,2.93113 -0.42699,4.39834 -2.11747,-0.20239 -4.28571,-0.21112 -6.3301,-0.86328 0.16387,-1.61865 0.8393,-3.13903 1.27965,-4.69689 1.11268,-3.49276 2.30502,-6.968312 3.72623,-10.346075 4.18557,-0.749275 8.50609,-0.502031 12.70446,-1.206762 1.42446,-0.594616 1.48002,-2.378568 1.42696,-3.698328 -0.0172,-1.119051 -0.7199,-2.489022 -2.0146,-2.378194 -0.42187,-0.015 -0.84335,-0.0105 -1.26525,8.1e-5 z" /><path
           style="fill:#d4c523;fill-opacity:0.94902;stroke:#1a1a1a;stroke-width:0.943319;stroke-linejoin:round;stroke-dasharray:none"
           d="m 124.02123,86.23655 c 0.0568,-4.449257 -0.0516,-10.201828 -0.24069,-12.783495 l -0.3439,-6.28144 4.80755,-0.0017 c 1.77103,-8.48e-4 5.37556,-0.150873 8.01365,-0.256067 l 6.3811,-0.254448 0.10065,7.583062 c 0.0591,4.455862 -0.0237,6.097733 -0.38348,6.393363 -0.26626,0.21879 -3.27962,0.534274 -4.75604,0.701068 -6.8448,0.773275 -4.41509,0.338886 -4.54681,1.059623 -0.08,0.438098 0.4836,0.735849 0.76493,1.073276 2.33652,2.802396 4.62016,4.367615 7.62596,7.852342 l 2.59105,3.003889 h -3.78196 -2.19445 l -3.56767,-3.59529 c -1.96221,-1.977448 -3.83426,-3.595358 -4.1601,-3.595358 -0.4872,0 -0.59244,0.595571 -0.59244,3.352876 0,3.735182 -0.0728,3.837832 -2.72311,3.837832 h -3.09741 z m 12.09468,-8.016537 c 1.40607,-0.242107 1.43809,-0.286453 1.43809,-1.993026 0,-1.285151 0.0361,-1.705885 -0.57525,-1.74541 -0.4422,-0.02859 -0.57523,0.399484 -0.57523,1.198453 0,1.169911 -0.0451,1.198452 -1.8948,1.198452 -1.86468,0 -2.59819,0.412362 -2.13181,1.198453 0.26906,0.453507 1.63299,0.5057 3.739,0.143078 z m -5.56432,-3.608425 v -1.78757 l 2.30093,-0.201314 c 1.26551,-0.110722 2.53167,-0.355722 2.8137,-0.544445 1.05464,-0.705734 -0.23627,-0.97276 -3.67655,-0.760488 l -3.54726,0.218873 v 1.76853 c 0,2.123768 0.58376,3.410972 1.46395,3.228068 0.48934,-0.101692 0.64523,-0.565959 0.64523,-1.921654 z"
           id="letter_r" /><path
           style="fill:#81ab14;fill-opacity:0.996078;stroke:#1a1a1a;stroke-width:0.940175;stroke-linejoin:round;stroke-dasharray:none;stroke-dashoffset:0"
           d="m 156.01486,93.495459 c -0.29536,-2.319489 -0.87344,-3.009342 -3.02348,-3.608131 -0.8869,-0.247004 -1.82827,-0.633301 -2.09192,-0.858439 -0.50466,-0.430946 -0.91466,-0.202565 -2.78832,1.553146 l -0.96677,0.905901 -1.36288,-1.9105 -1.36287,-1.9105 1.42813,-1.11905 1.42813,-1.119051 -0.70131,-1.63176 c -0.58794,-1.367989 -0.62718,-1.828672 -0.24274,-2.849925 0.25222,-0.66999 0.40291,-1.693735 0.33488,-2.274988 -0.1029,-0.879153 -0.40635,-1.130969 -1.80502,-1.497848 -0.92473,-0.242563 -1.77472,-0.598444 -1.88887,-0.790845 -0.11415,-0.192401 0.0698,-1.197867 0.40886,-2.234364 0.56396,-1.724121 0.7021,-1.864603 1.62287,-1.650278 3.58285,0.833962 4.40739,0.762012 5.94864,-0.519073 0.81995,-0.681538 1.70501,-1.239164 1.96679,-1.239164 0.69903,0 1.50975,-2.42996 1.68795,-5.059335 0.0195,-0.288018 0.98146,-0.516303 2.52501,-0.599227 l 2.49347,-0.133957 -8.1e-4,1.871544 c -9.9e-4,3.007162 0.4468,3.739097 2.86646,4.682169 2.74713,1.070707 2.86683,1.062752 5.1549,-0.34262 l 1.92012,-1.179369 1.3564,1.65076 c 1.58666,1.930977 1.66089,2.393074 0.49356,3.07286 -1.48594,0.865328 -2.67796,2.804071 -3.17033,5.15633 -0.26089,1.246381 -0.6088,2.603741 -0.77311,3.016359 -0.2194,0.550908 -0.0537,0.946536 0.62394,1.489185 0.50749,0.406432 1.20624,0.742965 1.55278,0.747848 0.34654,0.0049 0.74785,0.323477 0.89179,0.707981 0.19036,0.508471 -0.18095,1.110417 -1.36173,2.207545 l -1.62344,1.508446 -0.82702,-0.80935 c -1.03334,-1.011271 -1.62483,-1.013268 -3.07851,-0.01036 -0.63275,0.436539 -1.44422,0.79489 -1.80326,0.796337 -0.53169,0.0022 -0.67398,0.460772 -0.76698,2.47219 -0.12518,2.707787 -0.0841,2.669027 -3.42445,3.225244 l -1.39285,0.231917 z m 5.11347,-11.405081 c 0.80859,-0.708752 1.17989,-1.392012 1.17989,-2.171157 0,-1.803662 -0.65741,-3.186366 -1.51497,-3.186366 -0.65087,0 -0.71407,0.144956 -0.41747,0.957634 0.19224,0.526697 0.2455,1.066001 0.11835,1.198453 -0.12715,0.132448 -0.0356,0.240817 0.20329,0.240817 0.57116,0 -0.92862,2.652943 -1.66652,2.947918 -0.30666,0.122584 -0.55755,0.408291 -0.55755,0.6349 0,0.763436 1.46619,0.419833 2.65498,-0.622199 z m -4.95591,0.05909 c 0,-0.316606 -0.17257,-0.686752 -0.38349,-0.822544 -1.14544,-0.737452 0.19887,-4.834408 1.89691,-5.781078 1.02763,-0.572911 1.00718,-1.209897 -0.0389,-1.209897 -1.15684,0 -3.68547,2.888917 -3.98514,4.552958 -0.20329,1.128872 -0.064,1.574721 0.81249,2.599396 1.1514,1.346155 1.69808,1.559011 1.69808,0.661165 z"
           id="cog" /><path
           style="fill:#549c0e;fill-opacity:0.94902;stroke:#1a1a1a;stroke-width:1.32337;stroke-linejoin:miter;stroke-dasharray:none"
           d="m 212.01157,96.413605 c -0.80741,-0.41506 -2.52782,-2.08185 -3.82307,-3.70399 -2.17843,-1.870575 -3.19747,-3.703623 -4.97751,-5.409003 -0.84939,-0.81376 -1.51445,-2.568736 -2.71123,-2.291996 -0.56166,0.129879 -0.42817,0.982875 -0.55031,1.497159 -0.27623,1.16322 -0.0448,1.445665 -0.40279,3.551042 -0.6968,4.097188 -1.96273,5.499228 -4.32517,4.790258 -1.01852,-0.30566 -1.14404,-1.01997 -1.48395,-8.445217 -0.51008,-11.143038 -0.45106,-20.92124 0.13149,-21.79052 0.49507,-0.73873 6.70141,9.886296 10.71293,14.385272 1.09367,1.226567 1.90758,3.697064 3.61708,3.410313 0.75866,-0.127264 0.90329,-1.260272 0.90329,-1.934244 0,-0.673969 0.75994,-3.424259 1.68874,-6.111761 0.92883,-2.687494 2.09669,-6.374936 2.59529,-8.194315 1.23868,-4.519845 3.67804,-3.769658 5.44424,-3.783281 1.76621,-0.01363 2.53732,0.05384 2.6667,0.176166 0.12927,0.122329 -0.64224,2.543689 -1.71467,5.380815 -2.12596,5.624259 -2.84486,9.166347 -3.76627,18.556421 -1.14326,11.650941 -1.05528,11.433061 -4.00482,9.916881 z"
           id="letter_n" /><path
           style="fill:#017a01;fill-opacity:1;stroke:#1a1a1a;stroke-width:1.04813;stroke-linejoin:round;stroke-dasharray:none"
           d="m 214.97287,94.74106 c 0.93782,-3.38172 2.2008,-12.444212 2.19806,-15.7722 -0.002,-1.880782 0.67565,-7.15408 1.06546,-8.296712 0.11244,-0.329573 0.17422,-0.803133 0.13732,-1.052352 -0.0369,-0.249219 1.10072,-0.755807 2.52806,-1.125745 1.42733,-0.369942 3.54428,-0.938133 4.70434,-1.262648 1.16006,-0.324514 2.88053,-0.720817 3.82328,-0.880668 1.64389,-0.278738 1.73994,-0.372091 2.34476,-2.279069 1.2296,-3.876788 1.53574,-5.248466 2.45356,-10.993102 0.51044,-3.19484 1.04127,-6.116069 1.17962,-6.491618 0.21616,-0.586836 0.84447,-0.682816 4.46988,-0.682816 3.21064,0 4.17733,0.119289 4.04659,0.499355 -0.53625,1.558937 -1.54194,4.959675 -2.45135,8.289296 -0.5701,2.087306 -1.25005,3.981774 -1.511,4.209931 -0.26095,0.228157 -0.39078,0.870786 -0.28851,1.428059 0.10228,0.557275 -0.007,2.078396 -0.24211,3.380269 -0.23542,1.301871 -0.59229,4.710468 -0.79306,7.574653 -0.20076,2.864188 -0.63367,6.729199 -0.96203,8.588913 -0.32837,1.85971 -0.8241,4.770177 -1.10165,6.467702 -0.27754,1.697524 -0.71169,3.346322 -0.96477,3.664 -0.25309,0.317677 -1.18366,0.701415 -2.06792,0.852755 -0.88426,0.151341 -2.81573,0.690871 -4.29215,1.198964 -1.47644,0.508093 -3.54726,1.105092 -4.60186,1.326672 -1.05459,0.22158 -3.48858,0.774707 -5.40888,1.229164 -4.25584,1.007204 -4.51179,1.014834 -4.26564,0.127197 z m 10.54062,-8.489029 c 1.70332,-0.878865 3.49953,-1.60069 3.99158,-1.604054 0.49206,-0.0033 1.092,-0.138191 1.33322,-0.299613 0.46311,-0.309912 0.73941,-4.434204 0.60175,-8.982277 -0.0729,-2.411686 -0.1635,-2.696518 -0.85682,-2.696518 -0.42635,0 -1.41863,0.429389 -2.20504,0.954197 -0.78643,0.524807 -2.40334,1.262329 -3.59315,1.638934 l -2.16327,0.684741 0.18907,1.468527 c 0.15757,1.223745 -0.43067,5.727557 -1.24537,9.535162 -0.27137,1.268233 0.34758,1.158634 3.94803,-0.699099 z"
           id="letter_d" /><path
           style="fill:#ff7d46;fill-opacity:0.996078;stroke:#1a1a1a;stroke-width:1.04813;stroke-linejoin:round;stroke-dasharray:none"
           d="m 51.006396,66.547446 c 0,-0.233281 0.355994,-3.434981 0.791096,-6.46813 0.435103,-3.033151 1.026282,-7.672035 1.31373,-10.308631 0.598904,-5.493421 1.39482,-11.962345 1.480299,-12.031349 0.0319,-0.02576 3.905197,-0.143883 8.607317,-0.262504 l 8.549309,-0.215678 -0.112581,2.659409 -0.112583,2.659408 -1.53395,-0.02684 c -0.843672,-0.01474 -3.028807,-0.173021 -4.855855,-0.351707 -3.739752,-0.365757 -5.098417,-0.149435 -5.492105,0.874435 -0.410564,1.067753 -1.298346,7.052845 -1.096755,7.393906 0.09741,0.164786 2.324029,0.299613 4.948058,0.299613 h 4.770963 v 2.012103 2.012101 l -4.951964,-0.272331 -4.951965,-0.272332 -0.414726,1.555974 c -0.453997,1.728039 -0.416974,3.517465 -0.419061,5.287479 l 2.51759,0.28086 c 1.384674,0.154469 3.886364,0.156478 5.559306,0.0045 4.029474,-0.366159 4.579763,-0.16123 4.572323,1.702749 -0.0032,0.809129 -0.132658,2.727142 -0.287616,2.968728 -0.180838,0.281936 -3.234677,0.535561 -8.526729,0.708159 -4.534739,0.147896 -8.719549,-0.153499 -9.299575,-0.02301 -0.631284,0.142025 -1.054588,0.06701 -1.054588,-0.186888 z"
           id="letter_e" /><path
           style="fill:#ff7d46;fill-opacity:0.996078;stroke:#1a1a1a;stroke-width:1.04813;stroke-linejoin:round;stroke-dasharray:none"
           d="m 73.183693,65.460943 c -1.160047,-0.413177 -2.349977,-0.845405 -2.644279,-0.960507 -0.367135,-0.143586 0.306108,-1.115333 2.144825,-3.095792 1.47396,-1.587585 2.902434,-3.323627 3.174389,-3.857872 0.45777,-0.899274 0.383427,-1.07714 -1.001834,-2.396905 -0.822964,-0.784051 -2.576224,-2.45429 -3.896134,-3.711639 l -2.399833,-2.286086 1.544457,-1.608884 c 0.849454,-0.884885 1.673887,-1.609983 1.832076,-1.611328 0.158187,-0.0014 2.242779,-1.888908 4.632427,-4.194583 2.38963,-2.305678 4.56791,-4.192139 4.84061,-4.192139 0.2727,0 1.21859,0.816832 2.102,1.815183 l 1.60617,1.815184 -2.02156,2.479269 c -1.11184,1.3636 -2.68059,3.194246 -3.4861,4.068106 -0.80551,0.873857 -1.41555,1.853906 -1.35566,2.177889 0.0599,0.32398 1.4497,1.51756 3.08845,2.652397 1.63876,1.134841 3.3159,2.380434 3.727,2.767985 0.73517,0.693068 0.72683,0.721828 -0.50798,1.751033 -0.6905,0.575513 -2.49556,2.515545 -4.01126,4.311179 -2.39503,2.837397 -4.700433,5.030647 -5.126036,4.876688 -0.07291,-0.02638 -1.081677,-0.386001 -2.241728,-0.799178 z"
           id="letter_s" /><path
           id="letter_a2"
           style="fill:#ff7d46;fill-opacity:0.996078;stroke:#1a1a1a;stroke-width:1.13102;stroke-linejoin:round;stroke-dasharray:none"
           d="m 94.81218,38.116451 c -1.213921,0.146853 -1.548511,1.566283 -1.984048,2.504376 -1.768971,4.43691 -3.239202,8.99139 -5.214721,13.34608 -1.726122,4.16793 -3.987651,8.09166 -5.680452,12.27167 -0.393525,0.59283 1.65309,1.32575 2.333926,1.34858 1.175551,0.30378 2.512399,-9.7e-4 3.246094,-1.02344 2.400551,-3.19733 3.205045,-7.2999 5.99478,-10.17213 0.898434,-0.77419 3.976846,-0.52785 5.10869,0.13111 2.911451,2.65798 4.023861,6.91777 6.999471,9.50885 0.44866,0.48476 3.94033,-0.19782 4.0099,-1.0108 -0.42268,-2.77326 -1.32772,-5.45122 -2.03537,-8.16182 -1.34878,-4.99014 -2.70956,-9.8996 -3.38846,-15.03544 -0.20454,-0.94642 -0.002,-2.294731 -0.91602,-2.955082 -0.95557,-0.379324 -3.626427,-0.09946 -4.619431,-0.364329 -0.764127,-0.08048 -3.080852,-0.403923 -3.854359,-0.387625 z m 2.345298,7.941406 c 1.176794,1.68922 3.080322,3.51483 3.868862,5.4207 -0.91227,-0.29367 -1.713634,-0.86964 -2.317161,-1.34342 -0.532967,-0.41838 -0.691417,-0.94866 -1.180874,-0.89017 -1.076224,0.1286 -1.309761,1.818 -2.062228,2.51406 -0.328497,0.12666 -1.329001,0.24445 -0.970694,-0.37109 0.685667,-1.887 1.554061,-3.71184 2.566395,-5.44531 l 0.0639,0.0769 z" /></g></g></g><metadata
     id="metadata5"><rdf:RDF><cc:Work
         rdf:about=""><dc:title>Pesa playground</dc:title></cc:Work></rdf:RDF></metadata></svg>
